G04 Layer_Color=65535*
%FSLAX44Y44*%
%MOMM*%
G71*
G01*
G75*
%ADD45C,0.2540*%
%ADD46C,0.1778*%
%ADD47C,0.2032*%
%ADD48C,0.2000*%
%ADD49C,0.3001*%
G36*
X601980Y331470D02*
X584200D01*
X593090Y340360D01*
X601980Y331470D01*
D02*
G37*
G36*
X13716Y444500D02*
X7366Y438150D01*
Y450850D01*
X13716Y444500D01*
D02*
G37*
G36*
X889000Y662940D02*
X882650Y669290D01*
X895350D01*
X889000Y662940D01*
D02*
G37*
D45*
X345440Y173990D02*
X345421Y176531D01*
X345365Y179072D01*
X345272Y181612D01*
X345141Y184150D01*
X344973Y186686D01*
X344767Y189219D01*
X344525Y191749D01*
X344245Y194275D01*
X343928Y196797D01*
X343573Y199314D01*
X343182Y201825D01*
X342754Y204330D01*
X342290Y206829D01*
X341788Y209320D01*
X341250Y211804D01*
X340675Y214280D01*
X340064Y216747D01*
X339417Y219205D01*
X338733Y221652D01*
X338014Y224090D01*
X337259Y226517D01*
X336469Y228932D01*
X335642Y231336D01*
X334781Y233727D01*
X333884Y236105D01*
X332953Y238469D01*
X331987Y240820D01*
X330986Y243156D01*
X329951Y245478D01*
X328882Y247784D01*
X327780Y250073D01*
X326643Y252347D01*
X325474Y254603D01*
X324271Y256842D01*
X323036Y259063D01*
X321768Y261266D01*
X320467Y263449D01*
X319135Y265613D01*
X317771Y267758D01*
X316376Y269882D01*
X314949Y271985D01*
X313492Y274068D01*
X312004Y276128D01*
X310486Y278167D01*
X308938Y280182D01*
X307361Y282175D01*
X305754Y284145D01*
X304119Y286090D01*
X302456Y288011D01*
X300764Y289908D01*
X299044Y291780D01*
X297297Y293626D01*
X295524Y295446D01*
X293723Y297239D01*
X291896Y299007D01*
X290044Y300747D01*
X288166Y302459D01*
X286264Y304144D01*
X284336Y305801D01*
X282384Y307429D01*
X280409Y309028D01*
X278411Y310598D01*
X276389Y312138D01*
X274345Y313649D01*
X272279Y315129D01*
X270192Y316579D01*
X268083Y317997D01*
X265954Y319385D01*
X263804Y320741D01*
X261635Y322065D01*
X259447Y323358D01*
X257239Y324618D01*
X255014Y325845D01*
X252771Y327039D01*
X250510Y328201D01*
X248232Y329329D01*
X245939Y330423D01*
X243629Y331483D01*
X241304Y332510D01*
X238964Y333502D01*
X236610Y334459D01*
X234242Y335382D01*
X231860Y336269D01*
X229466Y337122D01*
X227059Y337939D01*
X224641Y338721D01*
X222212Y339467D01*
X219771Y340178D01*
X217321Y340852D01*
X214861Y341490D01*
X212392Y342092D01*
X209914Y342658D01*
X207428Y343187D01*
X204935Y343679D01*
X202434Y344135D01*
X199928Y344554D01*
X197415Y344935D01*
X194897Y345280D01*
X192374Y345588D01*
X189847Y345859D01*
X187316Y346092D01*
X184782Y346288D01*
X182246Y346447D01*
X179707Y346569D01*
X177167Y346653D01*
X174626Y346699D01*
X172085Y346709D01*
X169543Y346681D01*
X167003Y346615D01*
X164463Y346512D01*
X161925Y346372D01*
X159390Y346195D01*
X156858Y345980D01*
X154329Y345728D01*
X151804Y345439D01*
X149283Y345112D01*
X146768Y344749D01*
X144258Y344349D01*
X141754Y343912D01*
X139257Y343438D01*
X136768Y342927D01*
X134286Y342379D01*
X131812Y341796D01*
X129348Y341176D01*
X126892Y340519D01*
X124447Y339827D01*
X122012Y339099D01*
X119588Y338335D01*
X117176Y337535D01*
X114775Y336700D01*
X112387Y335830D01*
X110013Y334925D01*
X107651Y333984D01*
X105304Y333010D01*
X102971Y332001D01*
X100654Y330957D01*
X98352Y329880D01*
X96067Y328769D01*
X93797Y327624D01*
X91545Y326446D01*
X89311Y325235D01*
X87094Y323992D01*
X84896Y322715D01*
X82718Y321407D01*
X80558Y320067D01*
X78419Y318695D01*
X76300Y317292D01*
X74202Y315857D01*
X72125Y314392D01*
X70070Y312897D01*
X68037Y311371D01*
X66027Y309816D01*
X64040Y308232D01*
X62076Y306618D01*
X60137Y304976D01*
X58222Y303305D01*
X56331Y301606D01*
X54466Y299880D01*
X52627Y298126D01*
X50813Y296346D01*
X49026Y294538D01*
X47265Y292705D01*
X45532Y290847D01*
X43826Y288962D01*
X42149Y287054D01*
X40499Y285120D01*
X38878Y283162D01*
X37287Y281181D01*
X35724Y279177D01*
X34191Y277150D01*
X32688Y275100D01*
X31216Y273029D01*
X29773Y270936D01*
X28363Y268822D01*
X26983Y266688D01*
X25635Y264533D01*
X24318Y262359D01*
X23034Y260166D01*
X21782Y257954D01*
X20563Y255724D01*
X19377Y253476D01*
X18224Y251211D01*
X17104Y248930D01*
X16019Y246632D01*
X14967Y244318D01*
X13949Y241989D01*
X12966Y239646D01*
X12017Y237288D01*
X11103Y234917D01*
X10224Y232532D01*
X9380Y230135D01*
X8572Y227725D01*
X7799Y225304D01*
X7061Y222872D01*
X6360Y220429D01*
X5695Y217976D01*
X5066Y215514D01*
X4473Y213042D01*
X3916Y210562D01*
X3397Y208075D01*
X2913Y205579D01*
X2467Y203077D01*
X2057Y200569D01*
X1685Y198055D01*
X1349Y195536D01*
X1051Y193012D01*
X789Y190484D01*
X565Y187952D01*
X378Y185418D01*
X229Y182880D01*
X117Y180341D01*
X42Y177801D01*
X5Y175260D01*
Y172718D01*
X42Y170177D01*
X117Y167637D01*
X229Y165098D01*
X379Y162561D01*
X565Y160026D01*
X790Y157494D01*
X1051Y154966D01*
X1349Y152442D01*
X1685Y149923D01*
X2058Y147409D01*
X2467Y144901D01*
X2914Y142399D01*
X3397Y139904D01*
X3917Y137416D01*
X4473Y134936D01*
X5066Y132465D01*
X5695Y130002D01*
X6361Y127549D01*
X7062Y125106D01*
X7799Y122674D01*
X8572Y120253D01*
X9380Y117844D01*
X10224Y115446D01*
X11103Y113062D01*
X12017Y110690D01*
X12966Y108332D01*
X13950Y105989D01*
X14967Y103660D01*
X16019Y101346D01*
X17105Y99049D01*
X18225Y96767D01*
X19378Y94502D01*
X20564Y92254D01*
X21783Y90024D01*
X23035Y87812D01*
X24319Y85619D01*
X25635Y83445D01*
X26984Y81291D01*
X28363Y79156D01*
X29775Y77043D01*
X31216Y74950D01*
X32689Y72878D01*
X34192Y70829D01*
X35725Y68802D01*
X37288Y66797D01*
X38880Y64816D01*
X40500Y62859D01*
X42150Y60925D01*
X43828Y59016D01*
X45533Y57132D01*
X47267Y55273D01*
X49027Y53440D01*
X50814Y51633D01*
X52628Y49853D01*
X54468Y48099D01*
X56333Y46373D01*
X58223Y44674D01*
X60138Y43003D01*
X62078Y41361D01*
X64041Y39747D01*
X66028Y38163D01*
X68039Y36607D01*
X70071Y35082D01*
X72126Y33587D01*
X74203Y32122D01*
X76301Y30687D01*
X78420Y29284D01*
X80560Y27912D01*
X82719Y26572D01*
X84898Y25264D01*
X87096Y23988D01*
X89312Y22744D01*
X91547Y21533D01*
X93799Y20355D01*
X96068Y19210D01*
X98354Y18099D01*
X100656Y17022D01*
X102973Y15979D01*
X105306Y14970D01*
X107653Y13995D01*
X110014Y13055D01*
X112389Y12149D01*
X114777Y11279D01*
X117177Y10444D01*
X119590Y9645D01*
X122014Y8881D01*
X124449Y8152D01*
X126894Y7460D01*
X129349Y6804D01*
X131814Y6184D01*
X134288Y5600D01*
X136770Y5053D01*
X139259Y4542D01*
X141756Y4068D01*
X144260Y3631D01*
X146769Y3231D01*
X149285Y2867D01*
X151805Y2541D01*
X154330Y2252D01*
X156859Y2000D01*
X159391Y1785D01*
X161927Y1608D01*
X164464Y1467D01*
X167004Y1365D01*
X169544Y1299D01*
X172086Y1271D01*
X174627Y1280D01*
X177168Y1327D01*
X179708Y1411D01*
X182247Y1533D01*
X184783Y1692D01*
X187317Y1888D01*
X189848Y2121D01*
X192375Y2392D01*
X194898Y2700D01*
X197416Y3045D01*
X199928Y3426D01*
X202435Y3845D01*
X204935Y4301D01*
X207428Y4793D01*
X209914Y5322D01*
X212392Y5888D01*
X214861Y6490D01*
X217321Y7128D01*
X219772Y7802D01*
X222212Y8513D01*
X224641Y9259D01*
X227059Y10041D01*
X229466Y10858D01*
X231860Y11710D01*
X234242Y12598D01*
X236609Y13521D01*
X238964Y14478D01*
X241304Y15470D01*
X243629Y16497D01*
X245938Y17557D01*
X248232Y18651D01*
X250510Y19779D01*
X252770Y20940D01*
X255014Y22135D01*
X257239Y23362D01*
X259446Y24622D01*
X261635Y25914D01*
X263804Y27239D01*
X265953Y28595D01*
X268083Y29982D01*
X270191Y31401D01*
X272279Y32851D01*
X274345Y34331D01*
X276388Y35841D01*
X278410Y37382D01*
X280408Y38952D01*
X282384Y40551D01*
X284335Y42179D01*
X286263Y43835D01*
X288166Y45520D01*
X290043Y47233D01*
X291896Y48973D01*
X293722Y50740D01*
X295523Y52533D01*
X297297Y54354D01*
X299043Y56200D01*
X300763Y58071D01*
X302455Y59968D01*
X304118Y61889D01*
X305754Y63834D01*
X307360Y65804D01*
X308937Y67797D01*
X310485Y69812D01*
X312003Y71851D01*
X313491Y73911D01*
X314948Y75993D01*
X316375Y78097D01*
X317770Y80221D01*
X319134Y82365D01*
X320466Y84529D01*
X321767Y86713D01*
X323035Y88916D01*
X324270Y91137D01*
X325473Y93375D01*
X326643Y95632D01*
X327779Y97905D01*
X328882Y100195D01*
X329951Y102500D01*
X330985Y104822D01*
X331986Y107158D01*
X332952Y109509D01*
X333884Y111873D01*
X334780Y114251D01*
X335642Y116642D01*
X336468Y119046D01*
X337258Y121461D01*
X338014Y123888D01*
X338733Y126325D01*
X339416Y128773D01*
X340064Y131231D01*
X340675Y133698D01*
X341249Y136173D01*
X341787Y138657D01*
X342289Y141149D01*
X342754Y143647D01*
X343182Y146152D01*
X343573Y148664D01*
X343927Y151180D01*
X344244Y153702D01*
X344524Y156228D01*
X344767Y158758D01*
X344972Y161291D01*
X345141Y163827D01*
X345272Y166365D01*
X345365Y168905D01*
X345421Y171446D01*
X345440Y173987D01*
Y173990D01*
X216916Y39878D02*
Y53594D01*
X210820Y46990D02*
X223520D01*
X958668Y654793D02*
Y629399D01*
X959877Y654793D02*
Y629399D01*
X975598Y654793D02*
X959877Y639073D01*
X965923Y643910D02*
X975598Y629399D01*
X964714Y643910D02*
X974388Y629399D01*
X955040Y654793D02*
X963505D01*
X970760D02*
X978016D01*
X955040Y629399D02*
X963505D01*
X970760D02*
X978016D01*
X984788Y654793D02*
Y629399D01*
X985997Y654793D02*
Y629399D01*
X1000508Y654793D02*
Y629399D01*
X1001718Y654793D02*
Y629399D01*
X981160Y654793D02*
X989625D01*
X996881D02*
X1005345D01*
X985997Y642701D02*
X1000508D01*
X981160Y629399D02*
X989625D01*
X996881D02*
X1005345D01*
X1016833Y654793D02*
X1013206Y653584D01*
X1010787Y651166D01*
X1009578Y648747D01*
X1008369Y643910D01*
Y640282D01*
X1009578Y635445D01*
X1010787Y633027D01*
X1013206Y630608D01*
X1016833Y629399D01*
X1019252D01*
X1022880Y630608D01*
X1025298Y633027D01*
X1026507Y635445D01*
X1027717Y640282D01*
Y643910D01*
X1026507Y648747D01*
X1025298Y651166D01*
X1022880Y653584D01*
X1019252Y654793D01*
X1016833D01*
X1014415Y653584D01*
X1011996Y651166D01*
X1010787Y648747D01*
X1009578Y643910D01*
Y640282D01*
X1010787Y635445D01*
X1011996Y633027D01*
X1014415Y630608D01*
X1016833Y629399D01*
X1019252D02*
X1021671Y630608D01*
X1024089Y633027D01*
X1025298Y635445D01*
X1026507Y640282D01*
Y643910D01*
X1025298Y648747D01*
X1024089Y651166D01*
X1021671Y653584D01*
X1019252Y654793D01*
X1042107D02*
X1033642Y629399D01*
X1042107Y654793D02*
X1050572Y629399D01*
X1042107Y651166D02*
X1049363Y629399D01*
X1036061Y636655D02*
X1046944D01*
X1031224Y629399D02*
X1038479D01*
X1045735D02*
X1052990D01*
X1096040Y651166D02*
X1097250Y647538D01*
Y654793D01*
X1096040Y651166D01*
X1093622Y653584D01*
X1089994Y654793D01*
X1087575D01*
X1083948Y653584D01*
X1081529Y651166D01*
X1080320Y648747D01*
X1079110Y645119D01*
Y639073D01*
X1080320Y635445D01*
X1081529Y633027D01*
X1083948Y630608D01*
X1087575Y629399D01*
X1089994D01*
X1093622Y630608D01*
X1096040Y633027D01*
X1097250Y635445D01*
X1087575Y654793D02*
X1085157Y653584D01*
X1082738Y651166D01*
X1081529Y648747D01*
X1080320Y645119D01*
Y639073D01*
X1081529Y635445D01*
X1082738Y633027D01*
X1085157Y630608D01*
X1087575Y629399D01*
X1104505Y654793D02*
Y636655D01*
X1105714Y633027D01*
X1108133Y630608D01*
X1111761Y629399D01*
X1114179D01*
X1117807Y630608D01*
X1120226Y633027D01*
X1121435Y636655D01*
Y654793D01*
X1105714D02*
Y636655D01*
X1106924Y633027D01*
X1109342Y630608D01*
X1111761Y629399D01*
X1100877Y654793D02*
X1109342D01*
X1117807D02*
X1125063D01*
X1138969D02*
X1130504Y629399D01*
X1138969Y654793D02*
X1147434Y629399D01*
X1138969Y651166D02*
X1146225Y629399D01*
X1132923Y636655D02*
X1143806D01*
X1128086Y629399D02*
X1135341D01*
X1142597D02*
X1149853D01*
X1179600Y654793D02*
Y629399D01*
X1180810Y654793D02*
Y629399D01*
X1175973Y654793D02*
X1188065D01*
X1191693Y653584D01*
X1194112Y651166D01*
X1195321Y648747D01*
X1196530Y645119D01*
Y639073D01*
X1195321Y635445D01*
X1194112Y633027D01*
X1191693Y630608D01*
X1188065Y629399D01*
X1175973D01*
X1188065Y654793D02*
X1190484Y653584D01*
X1192902Y651166D01*
X1194112Y648747D01*
X1195321Y645119D01*
Y639073D01*
X1194112Y635445D01*
X1192902Y633027D01*
X1190484Y630608D01*
X1188065Y629399D01*
X1203544Y654793D02*
Y629399D01*
X1204753Y654793D02*
Y629399D01*
X1199916Y654793D02*
X1208381D01*
X1199916Y629399D02*
X1208381D01*
X1216604Y654793D02*
Y629399D01*
X1217813Y654793D02*
Y629399D01*
X1225069Y647538D02*
Y637864D01*
X1212976Y654793D02*
X1232324D01*
Y647538D01*
X1231115Y654793D01*
X1217813Y642701D02*
X1225069D01*
X1212976Y629399D02*
X1232324D01*
Y636655D01*
X1231115Y629399D01*
X1239459Y654793D02*
Y629399D01*
X1240668Y654793D02*
X1255180Y631818D01*
X1240668Y652375D02*
X1255180Y629399D01*
Y654793D02*
Y629399D01*
X1235831Y654793D02*
X1240668D01*
X1251552D02*
X1258807D01*
X1235831Y629399D02*
X1243087D01*
X1293271Y654793D02*
Y629399D01*
X1294481Y654793D02*
Y629399D01*
X1286016Y654793D02*
X1284806Y647538D01*
Y654793D01*
X1302945D01*
Y647538D01*
X1301736Y654793D01*
X1289644Y629399D02*
X1298108D01*
X1310201Y654793D02*
Y636655D01*
X1311410Y633027D01*
X1313829Y630608D01*
X1317457Y629399D01*
X1319875D01*
X1323503Y630608D01*
X1325921Y633027D01*
X1327131Y636655D01*
Y654793D01*
X1311410D02*
Y636655D01*
X1312619Y633027D01*
X1315038Y630608D01*
X1317457Y629399D01*
X1306573Y654793D02*
X1315038D01*
X1323503D02*
X1330759D01*
X667004Y599181D02*
Y586485D01*
X669543Y583946D01*
X674622D01*
X677161Y586485D01*
Y599181D01*
X682239Y583946D02*
X687317D01*
X684778D01*
Y599181D01*
X682239Y596642D01*
X435226Y96135D02*
X432687Y98674D01*
X427608D01*
X425069Y96135D01*
Y93596D01*
X427608Y91056D01*
X432687D01*
X435226Y88517D01*
Y85978D01*
X432687Y83439D01*
X427608D01*
X425069Y85978D01*
X440304Y98674D02*
Y83439D01*
X445382Y88517D01*
X450461Y83439D01*
Y98674D01*
X455539Y83439D02*
X460617D01*
X458078D01*
Y98674D01*
X455539Y96135D01*
X514858Y390398D02*
Y405633D01*
X522476D01*
X525015Y403094D01*
Y398016D01*
X522476Y395476D01*
X514858D01*
X540250Y390398D02*
X530093D01*
X540250Y400555D01*
Y403094D01*
X537711Y405633D01*
X532632D01*
X530093Y403094D01*
X68834Y669036D02*
Y684271D01*
X76452D01*
X78991Y681732D01*
Y676654D01*
X76452Y674114D01*
X68834D01*
X84069Y669036D02*
X89147D01*
X86608D01*
Y684271D01*
X84069Y681732D01*
X1143Y370708D02*
Y355473D01*
X11300D01*
X26535Y368169D02*
X23996Y370708D01*
X18917D01*
X16378Y368169D01*
Y365630D01*
X18917Y363091D01*
X23996D01*
X26535Y360551D01*
Y358012D01*
X23996Y355473D01*
X18917D01*
X16378Y358012D01*
X31613Y355473D02*
X36692D01*
X34152D01*
Y370708D01*
X31613Y368169D01*
X709673Y692145D02*
X704594D01*
X707133D01*
Y679449D01*
X704594Y676910D01*
X702055D01*
X699516Y679449D01*
X714751Y676910D02*
Y692145D01*
X722369D01*
X724908Y689606D01*
Y684528D01*
X722369Y681988D01*
X714751D01*
X729986Y676910D02*
X735064D01*
X732525D01*
Y692145D01*
X729986Y689606D01*
X20063Y481071D02*
X14984D01*
X17523D01*
Y468375D01*
X14984Y465836D01*
X12445D01*
X9906Y468375D01*
X25141Y465836D02*
X30219D01*
X27680D01*
Y481071D01*
X25141Y478532D01*
X589026Y493517D02*
Y478282D01*
X596643D01*
X599183Y480821D01*
Y490978D01*
X596643Y493517D01*
X589026D01*
X604261Y478282D02*
X609339D01*
X606800D01*
Y493517D01*
X604261Y490978D01*
X30731Y643632D02*
X28191Y646171D01*
X23113D01*
X20574Y643632D01*
Y633475D01*
X23113Y630936D01*
X28191D01*
X30731Y633475D01*
X45966Y630936D02*
X35809D01*
X45966Y641093D01*
Y643632D01*
X43427Y646171D01*
X38348D01*
X35809Y643632D01*
D46*
X474636Y45278D02*
X474121Y47764D01*
X473231Y50141D01*
X471987Y52353D01*
X470418Y54349D01*
X468563Y56081D01*
X466463Y57508D01*
X464170Y58596D01*
X461737Y59320D01*
X459222Y59662D01*
X456684Y59615D01*
X454184Y59179D01*
X451779Y58365D01*
X449528Y57192D01*
X447483Y55688D01*
X445694Y53889D01*
X444201Y51836D01*
X443040Y49578D01*
X442239Y47170D01*
X441817Y44667D01*
X441783Y42129D01*
X442139Y39615D01*
X442876Y37187D01*
X443977Y34899D01*
X445415Y32808D01*
X447156Y30961D01*
X449160Y29404D01*
X451380Y28172D01*
X453762Y27294D01*
X456250Y26793D01*
X458786Y26678D01*
X461309Y26954D01*
X463760Y27613D01*
X466081Y28640D01*
X468218Y30011D01*
X470118Y31693D01*
X471739Y33647D01*
X473041Y35826D01*
X473994Y38178D01*
X474575Y40649D01*
X474770Y43180D01*
X561340Y45720D02*
X561182Y48237D01*
X560709Y50714D01*
X559930Y53112D01*
X558856Y55394D01*
X557505Y57523D01*
X555898Y59466D01*
X554059Y61192D01*
X552019Y62674D01*
X549809Y63889D01*
X547465Y64818D01*
X545022Y65445D01*
X542520Y65761D01*
X539999D01*
X537497Y65445D01*
X535054Y64818D01*
X532710Y63889D01*
X530500Y62674D01*
X528460Y61192D01*
X526622Y59466D01*
X525014Y57523D01*
X523663Y55394D01*
X522589Y53112D01*
X521810Y50714D01*
X521337Y48237D01*
X521179Y45720D01*
X521337Y43203D01*
X521810Y40726D01*
X522589Y38328D01*
X523663Y36046D01*
X525014Y33917D01*
X526622Y31974D01*
X528460Y30248D01*
X530500Y28765D01*
X532710Y27551D01*
X535054Y26622D01*
X537497Y25995D01*
X539999Y25679D01*
X542520D01*
X545022Y25995D01*
X547465Y26622D01*
X549809Y27551D01*
X552019Y28765D01*
X554059Y30248D01*
X555898Y31974D01*
X557505Y33917D01*
X558856Y36046D01*
X559930Y38328D01*
X560709Y40726D01*
X561182Y43203D01*
X561340Y45720D01*
Y354330D02*
X561182Y356847D01*
X560709Y359324D01*
X559930Y361722D01*
X558856Y364004D01*
X557505Y366133D01*
X555898Y368076D01*
X554059Y369802D01*
X552019Y371284D01*
X549809Y372499D01*
X547465Y373428D01*
X545022Y374055D01*
X542520Y374371D01*
X539999D01*
X537497Y374055D01*
X535054Y373428D01*
X532710Y372499D01*
X530500Y371284D01*
X528460Y369802D01*
X526622Y368076D01*
X525014Y366133D01*
X523663Y364004D01*
X522589Y361722D01*
X521810Y359324D01*
X521337Y356847D01*
X521179Y354330D01*
X521337Y351813D01*
X521810Y349336D01*
X522589Y346938D01*
X523663Y344656D01*
X525014Y342527D01*
X526622Y340584D01*
X528460Y338858D01*
X530500Y337375D01*
X532710Y336161D01*
X535054Y335232D01*
X537497Y334605D01*
X539999Y334289D01*
X542520D01*
X545022Y334605D01*
X547465Y335232D01*
X549809Y336161D01*
X552019Y337375D01*
X554059Y338858D01*
X555898Y340584D01*
X557505Y342527D01*
X558856Y344656D01*
X559930Y346938D01*
X560709Y349336D01*
X561182Y351813D01*
X561340Y354330D01*
X1310640D02*
X1310482Y356847D01*
X1310009Y359324D01*
X1309230Y361722D01*
X1308156Y364004D01*
X1306805Y366133D01*
X1305198Y368076D01*
X1303359Y369802D01*
X1301319Y371284D01*
X1299109Y372499D01*
X1296765Y373428D01*
X1294322Y374055D01*
X1291820Y374371D01*
X1289299D01*
X1286797Y374055D01*
X1284354Y373428D01*
X1282010Y372499D01*
X1279800Y371284D01*
X1277760Y369802D01*
X1275921Y368076D01*
X1274314Y366133D01*
X1272963Y364004D01*
X1271889Y361722D01*
X1271110Y359324D01*
X1270637Y356847D01*
X1270479Y354330D01*
X1270637Y351813D01*
X1271110Y349336D01*
X1271889Y346938D01*
X1272963Y344656D01*
X1274314Y342527D01*
X1275921Y340584D01*
X1277760Y338858D01*
X1279800Y337375D01*
X1282010Y336161D01*
X1284354Y335232D01*
X1286797Y334605D01*
X1289299Y334289D01*
X1291820D01*
X1294322Y334605D01*
X1296765Y335232D01*
X1299109Y336161D01*
X1301319Y337375D01*
X1303359Y338858D01*
X1305198Y340584D01*
X1306805Y342527D01*
X1308156Y344656D01*
X1309230Y346938D01*
X1310009Y349336D01*
X1310482Y351813D01*
X1310640Y354330D01*
Y44450D02*
X1310482Y46967D01*
X1310009Y49444D01*
X1309230Y51842D01*
X1308156Y54124D01*
X1306805Y56253D01*
X1305198Y58196D01*
X1303359Y59922D01*
X1301319Y61405D01*
X1299109Y62619D01*
X1296765Y63548D01*
X1294322Y64175D01*
X1291820Y64491D01*
X1289299D01*
X1286797Y64175D01*
X1284354Y63548D01*
X1282010Y62619D01*
X1279800Y61405D01*
X1277760Y59922D01*
X1275921Y58196D01*
X1274314Y56253D01*
X1272963Y54124D01*
X1271889Y51842D01*
X1271110Y49444D01*
X1270637Y46967D01*
X1270479Y44450D01*
X1270637Y41933D01*
X1271110Y39456D01*
X1271889Y37058D01*
X1272963Y34776D01*
X1274314Y32647D01*
X1275921Y30704D01*
X1277760Y28978D01*
X1279800Y27496D01*
X1282010Y26281D01*
X1284354Y25352D01*
X1286797Y24725D01*
X1289299Y24409D01*
X1291820D01*
X1294322Y24725D01*
X1296765Y25352D01*
X1299109Y26281D01*
X1301319Y27496D01*
X1303359Y28978D01*
X1305198Y30704D01*
X1306805Y32647D01*
X1308156Y34776D01*
X1309230Y37058D01*
X1310009Y39456D01*
X1310482Y41933D01*
X1310640Y44450D01*
X426720Y74930D02*
X490220D01*
Y11430D02*
Y74930D01*
X426720Y11430D02*
X490220D01*
X426720D02*
Y74930D01*
X605790Y120650D02*
X1219200D01*
Y283210D01*
X605790D02*
X1219200D01*
X605790Y120650D02*
Y283210D01*
X567690Y80010D02*
X1261110D01*
Y323850D01*
X567690D02*
X1261110D01*
X567690Y80010D02*
Y323850D01*
X513080Y16510D02*
X1318260D01*
Y381000D01*
X513080D02*
X1318260D01*
X513080Y16510D02*
Y381000D01*
X876046Y629666D02*
Y659130D01*
X697992Y629412D02*
X903224D01*
X697992D02*
Y659130D01*
X903224D01*
Y629412D02*
Y659130D01*
X15240Y381000D02*
Y457200D01*
X40640D01*
Y381000D02*
Y457200D01*
X15240Y381000D02*
X40640D01*
X15240Y433070D02*
X40386D01*
D47*
X678180Y397510D02*
Y575310D01*
X1186180D01*
Y397510D02*
Y575310D01*
X678180Y397510D02*
X1186180D01*
X665480Y499110D02*
X671830D01*
Y473710D02*
Y499110D01*
X665480Y473710D02*
X671830D01*
X665480Y422910D02*
Y473710D01*
Y422910D02*
X1198880D01*
Y549910D01*
X665480D02*
X1198880D01*
X665480Y499110D02*
Y549910D01*
Y473710D02*
Y499110D01*
X671830D01*
Y473710D02*
Y499110D01*
X665480Y473710D02*
X671830D01*
X665480Y422910D02*
Y473710D01*
Y422910D02*
X1198880D01*
Y549910D01*
X665480D02*
X1198880D01*
X665480Y499110D02*
Y549910D01*
Y473710D02*
Y499110D01*
D48*
X587520Y450730D02*
Y469730D01*
X621520Y450730D02*
Y469730D01*
X587520D02*
X621520D01*
X591520Y413730D02*
X617520D01*
X587520Y418730D02*
Y435730D01*
X617520Y413730D02*
X621520Y418730D01*
X587520D02*
X591520Y413730D01*
X621520Y418730D02*
Y435730D01*
X118110Y635000D02*
Y660400D01*
X67310Y635000D02*
X118110D01*
X67310D02*
Y660400D01*
X118110D01*
X19050Y543560D02*
X44450D01*
X19050Y515662D02*
X44450D01*
X19050D02*
Y622262D01*
X44450Y515662D02*
Y622262D01*
X19050D02*
X44450D01*
D49*
X849630Y488704D02*
Y473710D01*
X857127D01*
X859626Y476209D01*
Y486205D01*
X857127Y488704D01*
X849630D01*
X864624D02*
X869622D01*
X867123D01*
Y473710D01*
X864624D01*
X869622D01*
X877119D02*
Y488704D01*
X884616D01*
X887115Y486205D01*
Y481207D01*
X884616Y478708D01*
X877119D01*
X892113Y481207D02*
X902109D01*
X914603Y473710D02*
Y488704D01*
X907106Y481207D01*
X917102D01*
X922100Y486205D02*
X924599Y488704D01*
X929597D01*
X932096Y486205D01*
Y476209D01*
X929597Y473710D01*
X924599D01*
X922100Y476209D01*
Y486205D01*
X952088Y488704D02*
Y473710D01*
X962084D01*
X967082D02*
Y483706D01*
X972080Y488704D01*
X977078Y483706D01*
Y473710D01*
Y481207D01*
X967082D01*
X982076Y473710D02*
Y488704D01*
X989573D01*
X992072Y486205D01*
Y481207D01*
X989573Y478708D01*
X982076D01*
X987074D02*
X992072Y473710D01*
X1007065Y486205D02*
X1004566Y488704D01*
X999568D01*
X997069Y486205D01*
Y476209D01*
X999568Y473710D01*
X1004566D01*
X1007065Y476209D01*
Y481207D01*
X1002067D01*
X1022059Y488704D02*
X1012063D01*
Y473710D01*
X1022059D01*
X1012063Y481207D02*
X1017061D01*
M02*
