G04 Layer_Color=16711935*
%FSLAX44Y44*%
%MOMM*%
G71*
G01*
G75*
%ADD51R,2.0032X2.0032*%
%ADD52C,2.0032*%
%ADD53C,2.3032*%
%ADD54R,2.3032X2.3032*%
%ADD55R,2.7432X2.2352*%
%ADD56O,2.7432X2.2352*%
%ADD57C,2.2032*%
%ADD58R,4.0132X3.5052*%
%ADD59O,4.0132X3.5052*%
%ADD60C,1.9812*%
%ADD61O,2.2032X1.2032*%
%ADD62O,2.2032X1.2032*%
%ADD63C,1.8032*%
%ADD64C,1.4032*%
%ADD65O,1.5032X1.7032*%
%ADD66R,1.4986X1.7018*%
%ADD67C,2.7432*%
%ADD68R,2.7432X2.7432*%
%ADD69C,2.1082*%
%ADD70R,1.7032X1.7032*%
%ADD71C,1.7032*%
%ADD72O,1.7780X2.4892*%
%ADD73R,1.7780X2.4892*%
%ADD74C,1.7232*%
%ADD75R,1.7232X1.7232*%
%ADD76O,1.8542X2.4892*%
%ADD77R,1.8542X2.4892*%
%ADD78O,2.1082X1.8542*%
%ADD79R,1.4032X1.4032*%
%ADD80C,3.2512*%
%ADD81C,1.0922*%
%ADD82R,1.1524X1.1024*%
%ADD83R,1.1024X1.1524*%
D51*
X487680Y615950D02*
D03*
D52*
X436880D02*
D03*
Y565150D02*
D03*
X487680D02*
D03*
D53*
X558800Y585470D02*
D03*
D54*
X609600D02*
D03*
D55*
X370840Y568960D02*
D03*
X304800D02*
D03*
D56*
X370840Y594360D02*
D03*
Y619760D02*
D03*
X304800Y594360D02*
D03*
Y619760D02*
D03*
D57*
X209150Y510470D02*
D03*
Y660470D02*
D03*
X159150D02*
D03*
Y510470D02*
D03*
D58*
X231140Y63500D02*
D03*
D59*
Y118110D02*
D03*
Y172720D02*
D03*
D60*
X295910Y179070D02*
D03*
Y77470D02*
D03*
D61*
X318770Y331470D02*
D03*
Y306070D02*
D03*
D62*
Y318770D02*
D03*
D63*
X1133193Y440683D02*
D03*
X1083192D02*
D03*
D64*
X403860Y102870D02*
D03*
Y26670D02*
D03*
X1022350Y440690D02*
D03*
X946150D02*
D03*
X908050Y444500D02*
D03*
X831850D02*
D03*
X248920Y631190D02*
D03*
Y554990D02*
D03*
X615950Y294640D02*
D03*
X641350D02*
D03*
D65*
X690880Y410210D02*
D03*
D66*
X716280D02*
D03*
X741680D02*
D03*
X767080D02*
D03*
X792480D02*
D03*
X817880D02*
D03*
X843280D02*
D03*
X868680D02*
D03*
X894080D02*
D03*
X919480D02*
D03*
X944880D02*
D03*
X970280D02*
D03*
X995680D02*
D03*
X1021080D02*
D03*
X1046480D02*
D03*
X1071880D02*
D03*
X1097280D02*
D03*
X1122680D02*
D03*
X1148080D02*
D03*
X1173480D02*
D03*
Y562610D02*
D03*
X1148080D02*
D03*
X1122680D02*
D03*
X1097280D02*
D03*
X1071880D02*
D03*
X1046480D02*
D03*
X1021080D02*
D03*
X995680D02*
D03*
X970280D02*
D03*
X944880D02*
D03*
X919480D02*
D03*
X894080D02*
D03*
X868680D02*
D03*
X843280D02*
D03*
X817880D02*
D03*
X792480D02*
D03*
X767080D02*
D03*
X741680D02*
D03*
X716280D02*
D03*
X690880D02*
D03*
D67*
X172720Y300990D02*
D03*
D68*
Y46990D02*
D03*
D69*
X433070Y43180D02*
D03*
X483870D02*
D03*
D70*
X80010Y647700D02*
D03*
D71*
X105410D02*
D03*
D72*
X974090Y363220D02*
D03*
X948690D02*
D03*
X923290D02*
D03*
X897890D02*
D03*
X872490D02*
D03*
X847090D02*
D03*
X821690D02*
D03*
X796290D02*
D03*
X770890D02*
D03*
X745490D02*
D03*
X720090D02*
D03*
X694690D02*
D03*
X669290D02*
D03*
X643890D02*
D03*
X618490D02*
D03*
D73*
X593090D02*
D03*
D74*
X31750Y607060D02*
D03*
Y581660D02*
D03*
Y556260D02*
D03*
D75*
Y530860D02*
D03*
D76*
X736600Y643890D02*
D03*
X787400D02*
D03*
X863600D02*
D03*
X838200D02*
D03*
X812800D02*
D03*
X762000D02*
D03*
X711200D02*
D03*
D77*
X889000D02*
D03*
D78*
X27940Y393954D02*
D03*
Y418846D02*
D03*
Y444500D02*
D03*
D79*
X590550Y294640D02*
D03*
D80*
X52070Y90170D02*
D03*
X173990Y212090D02*
D03*
X113030Y64770D02*
D03*
X52070Y212090D02*
D03*
X173990Y90170D02*
D03*
D81*
X583692Y451612D02*
D03*
D82*
X344290Y107950D02*
D03*
X359290D02*
D03*
X337940Y55880D02*
D03*
X352940D02*
D03*
X282060Y22860D02*
D03*
X297060D02*
D03*
D83*
X609600Y452000D02*
D03*
Y437000D02*
D03*
X894080Y609480D02*
D03*
Y594480D02*
D03*
X864870Y609480D02*
D03*
Y594480D02*
D03*
X839470Y609480D02*
D03*
Y594480D02*
D03*
X811530Y609480D02*
D03*
Y594480D02*
D03*
X264160Y39250D02*
D03*
Y24250D02*
D03*
M02*
