G04 Layer_Color=32896*
%FSLAX44Y44*%
%MOMM*%
G71*
G01*
G75*
%ADD45C,0.2540*%
%ADD46C,0.1778*%
%ADD48C,0.2000*%
%ADD84C,0.2500*%
%ADD85C,0.3048*%
%ADD86C,0.1524*%
%ADD87C,0.1016*%
%ADD88C,0.1500*%
%ADD89R,0.9144X10.1346*%
%ADD90R,2.7940X0.6350*%
D45*
X547966Y618765D02*
X546291Y616855D01*
X544717Y614861D01*
X543247Y612788D01*
X541886Y610643D01*
X540637Y608431D01*
X539503Y606157D01*
X538488Y603828D01*
X537593Y601450D01*
X536822Y599029D01*
X536177Y596572D01*
X535658Y594085D01*
X535269Y591574D01*
X535008Y589047D01*
X534878Y586510D01*
X534879Y583969D01*
X535010Y581432D01*
X535271Y578904D01*
X535662Y576394D01*
X536181Y573907D01*
X536828Y571450D01*
X537600Y569030D01*
X538495Y566652D01*
X539512Y564323D01*
X540647Y562050D01*
X541897Y559838D01*
X543259Y557694D01*
X544729Y555622D01*
X546305Y553628D01*
X547980Y551718D01*
X549752Y549897D01*
X551614Y548170D01*
X553563Y546540D01*
X555594Y545012D01*
X557700Y543591D01*
X559876Y542280D01*
X562117Y541083D01*
X564416Y540003D01*
X566768Y539042D01*
X569166Y538203D01*
X571605Y537488D01*
X574076Y536900D01*
X576575Y536440D01*
X579094Y536109D01*
X581627Y535907D01*
X584166Y535836D01*
X586706Y535896D01*
X589240Y536086D01*
X591760Y536406D01*
X594261Y536856D01*
X596735Y537433D01*
X599176Y538136D01*
X601578Y538965D01*
X603934Y539915D01*
X606238Y540985D01*
X608484Y542173D01*
X610667Y543474D01*
X612779Y544886D01*
X614816Y546404D01*
X616772Y548025D01*
X618643Y549745D01*
X620422Y551558D01*
X622106Y553461D01*
X623690Y555447D01*
X625170Y557512D01*
X626541Y559651D01*
X627801Y561857D01*
X628946Y564125D01*
X629973Y566449D01*
X630878Y568823D01*
X631661Y571240D01*
X632319Y573694D01*
X632849Y576179D01*
X633251Y578687D01*
X633524Y581213D01*
X633666Y583750D01*
X633678Y586291D01*
X633559Y588829D01*
X633310Y591357D01*
X632931Y593869D01*
X632424Y596359D01*
X631789Y598819D01*
X631029Y601243D01*
X630145Y603625D01*
X629140Y605958D01*
X628016Y608237D01*
X626777Y610455D01*
X625425Y612606D01*
X623965Y614685D01*
X622399Y616686D01*
X620733Y618604D01*
X618970Y620434D01*
X617116Y622171D01*
X615175Y623810D01*
X613152Y625347D01*
X611053Y626778D01*
X608883Y628100D01*
X606648Y629308D01*
X604354Y630400D01*
X602007Y631372D01*
X599613Y632223D01*
X597178Y632949D01*
X594709Y633549D01*
X592213Y634021D01*
X589696Y634365D01*
X587164Y634579D01*
X584625Y634662D01*
X582085Y634614D01*
X579550Y634436D01*
X577028Y634129D01*
X574525Y633691D01*
X572048Y633126D01*
X569604Y632435D01*
X567198Y631618D01*
X564837Y630679D01*
X562528Y629620D01*
X560276Y628443D01*
X558088Y627153D01*
X555968Y625751D01*
X553924Y624243D01*
X551960Y622631D01*
X550081Y620921D01*
X548293Y619116D01*
X361942Y550664D02*
X360978Y552994D01*
X358648Y553959D01*
X356318Y552994D01*
X355354Y550664D01*
X356318Y548335D01*
X358648Y547370D01*
X360978Y548335D01*
X361942Y550664D01*
X295903D02*
X294938Y552994D01*
X292608Y553959D01*
X290278Y552994D01*
X289314Y550664D01*
X290278Y548335D01*
X292608Y547370D01*
X294938Y548335D01*
X295903Y550664D01*
X538480Y567690D02*
X567690Y538480D01*
X535940Y581660D02*
X581660Y535940D01*
X584200D01*
X535940Y593090D02*
X584200Y544830D01*
X538480Y601980D02*
X584200Y556260D01*
Y552450D02*
Y556260D01*
X542290Y609600D02*
X584200Y567690D01*
Y566420D02*
Y567690D01*
X547370Y615950D02*
X584200Y579120D01*
Y574040D02*
Y579120D01*
X552450Y621030D02*
X584200Y589280D01*
Y588010D02*
Y589280D01*
X557530Y626110D02*
X584200Y599440D01*
X563880Y629920D02*
X584200Y609600D01*
Y604520D02*
Y609600D01*
X572770Y632460D02*
X584200Y621030D01*
Y614680D02*
Y621030D01*
Y535940D02*
Y633730D01*
X217551Y694304D02*
X207394D01*
X212473D01*
Y679069D01*
X202316D02*
X197238D01*
X199777D01*
Y694304D01*
X202316Y691765D01*
X1187826Y418973D02*
X1185287D01*
X1180209Y424051D01*
X1185287Y429130D01*
X1187826D01*
X1180209Y424051D02*
X1172591D01*
Y434208D02*
Y439286D01*
Y436747D01*
X1187826D01*
X1185287Y434208D01*
X191389Y251079D02*
Y266314D01*
X183771D01*
X181232Y263775D01*
Y258696D01*
X183771Y256157D01*
X191389D01*
X186311D02*
X181232Y251079D01*
X176154Y266314D02*
Y251079D01*
X165997D01*
X160919D02*
X155841D01*
X158380D01*
Y266314D01*
X160919Y263775D01*
X267970Y53594D02*
Y68829D01*
X260352D01*
X257813Y66290D01*
Y61212D01*
X260352Y58672D01*
X267970D01*
X262892D02*
X257813Y53594D01*
X252735D02*
X247656D01*
X250196D01*
Y68829D01*
X252735Y66290D01*
X240039D02*
X237500Y68829D01*
X232421D01*
X229882Y66290D01*
Y56133D01*
X232421Y53594D01*
X237500D01*
X240039Y56133D01*
Y66290D01*
X300990Y36703D02*
Y51938D01*
X293372D01*
X290833Y49399D01*
Y44321D01*
X293372Y41781D01*
X300990D01*
X295912D02*
X290833Y36703D01*
X285755Y39242D02*
X283216Y36703D01*
X278137D01*
X275598Y39242D01*
Y49399D01*
X278137Y51938D01*
X283216D01*
X285755Y49399D01*
Y46860D01*
X283216Y44321D01*
X275598D01*
X815340Y623824D02*
Y639059D01*
X807722D01*
X805183Y636520D01*
Y631441D01*
X807722Y628902D01*
X815340D01*
X810262D02*
X805183Y623824D01*
X800105Y636520D02*
X797566Y639059D01*
X792487D01*
X789948Y636520D01*
Y633981D01*
X792487Y631441D01*
X789948Y628902D01*
Y626363D01*
X792487Y623824D01*
X797566D01*
X800105Y626363D01*
Y628902D01*
X797566Y631441D01*
X800105Y633981D01*
Y636520D01*
X797566Y631441D02*
X792487D01*
X843280Y623824D02*
Y639059D01*
X835663D01*
X833123Y636520D01*
Y631441D01*
X835663Y628902D01*
X843280D01*
X838202D02*
X833123Y623824D01*
X828045Y639059D02*
X817888D01*
Y636520D01*
X828045Y626363D01*
Y623824D01*
X868680D02*
Y639059D01*
X861062D01*
X858523Y636520D01*
Y631441D01*
X861062Y628902D01*
X868680D01*
X863602D02*
X858523Y623824D01*
X843288Y639059D02*
X848367Y636520D01*
X853445Y631441D01*
Y626363D01*
X850906Y623824D01*
X845827D01*
X843288Y626363D01*
Y628902D01*
X845827Y631441D01*
X853445D01*
X897890Y623824D02*
Y639059D01*
X890273D01*
X887733Y636520D01*
Y631441D01*
X890273Y628902D01*
X897890D01*
X892812D02*
X887733Y623824D01*
X872498Y639059D02*
X882655D01*
Y631441D01*
X877577Y633981D01*
X875037D01*
X872498Y631441D01*
Y626363D01*
X875037Y623824D01*
X880116D01*
X882655Y626363D01*
X687959Y270891D02*
X703194D01*
Y278508D01*
X700655Y281048D01*
X695576D01*
X693037Y278508D01*
Y270891D01*
Y275969D02*
X687959Y281048D01*
Y293744D02*
X703194D01*
X695576Y286126D01*
Y296283D01*
X356852Y69850D02*
Y85085D01*
X349234D01*
X346695Y82546D01*
Y77467D01*
X349234Y74928D01*
X356852D01*
X351773D02*
X346695Y69850D01*
X341617Y82546D02*
X339077Y85085D01*
X333999D01*
X331460Y82546D01*
Y80007D01*
X333999Y77467D01*
X336538D01*
X333999D01*
X331460Y74928D01*
Y72389D01*
X333999Y69850D01*
X339077D01*
X341617Y72389D01*
X613410Y466344D02*
Y481579D01*
X605793D01*
X603253Y479040D01*
Y473961D01*
X605793Y471422D01*
X613410D01*
X608332D02*
X603253Y466344D01*
X588018D02*
X598175D01*
X588018Y476501D01*
Y479040D01*
X590557Y481579D01*
X595636D01*
X598175Y479040D01*
X363202Y121920D02*
Y137155D01*
X355584D01*
X353045Y134616D01*
Y129537D01*
X355584Y126998D01*
X363202D01*
X358123D02*
X353045Y121920D01*
X347967D02*
X342888D01*
X345428D01*
Y137155D01*
X347967Y134616D01*
X248034Y209168D02*
Y219325D01*
X250574Y221864D01*
X255652D01*
X258191Y219325D01*
Y209168D01*
X255652Y206629D01*
X250574D01*
X253113Y211707D02*
X248034Y206629D01*
X250574D02*
X248034Y209168D01*
X242956Y221864D02*
Y206629D01*
X235338D01*
X232799Y209168D01*
Y211707D01*
X235338Y214247D01*
X242956D01*
X235338D01*
X232799Y216786D01*
Y219325D01*
X235338Y221864D01*
X242956D01*
X227721Y206629D02*
X222642D01*
X225182D01*
Y221864D01*
X227721Y219325D01*
X331983Y354769D02*
Y364926D01*
X334522Y367465D01*
X339601D01*
X342140Y364926D01*
Y354769D01*
X339601Y352230D01*
X334522D01*
X337062Y357309D02*
X331983Y352230D01*
X334522D02*
X331983Y354769D01*
X326905Y352230D02*
X321827D01*
X324366D01*
Y367465D01*
X326905Y364926D01*
X402236Y673810D02*
X397158D01*
X399697D01*
Y658575D01*
X402236D01*
X397158D01*
X379383Y671271D02*
X381923Y673810D01*
X387001D01*
X389540Y671271D01*
Y661114D01*
X387001Y658575D01*
X381923D01*
X379383Y661114D01*
X364148Y658575D02*
X374305D01*
X364148Y668732D01*
Y671271D01*
X366688Y673810D01*
X371766D01*
X374305Y671271D01*
X336196Y673810D02*
X331118D01*
X333657D01*
Y658575D01*
X336196D01*
X331118D01*
X313343Y671271D02*
X315883Y673810D01*
X320961D01*
X323500Y671271D01*
Y661114D01*
X320961Y658575D01*
X315883D01*
X313343Y661114D01*
X308265Y658575D02*
X303187D01*
X305726D01*
Y673810D01*
X308265Y671271D01*
X510730Y664495D02*
Y649260D01*
X503112D01*
X500573Y651799D01*
Y661956D01*
X503112Y664495D01*
X510730D01*
X495495Y661956D02*
X492956Y664495D01*
X487877D01*
X485338Y661956D01*
Y659417D01*
X487877Y656878D01*
X490417D01*
X487877D01*
X485338Y654338D01*
Y651799D01*
X487877Y649260D01*
X492956D01*
X495495Y651799D01*
X307975Y211704D02*
Y196469D01*
X300357D01*
X297818Y199008D01*
Y209165D01*
X300357Y211704D01*
X307975D01*
X282583Y196469D02*
X292740D01*
X282583Y206626D01*
Y209165D01*
X285122Y211704D01*
X290201D01*
X292740Y209165D01*
X622231Y656339D02*
X624771Y658878D01*
X629849D01*
X632388Y656339D01*
Y646182D01*
X629849Y643643D01*
X624771D01*
X622231Y646182D01*
X606996Y658878D02*
X612075Y656339D01*
X617153Y651261D01*
Y646182D01*
X614614Y643643D01*
X609535D01*
X606996Y646182D01*
Y648721D01*
X609535Y651261D01*
X617153D01*
X256155Y671556D02*
X258694Y674095D01*
X263773D01*
X266312Y671556D01*
Y661399D01*
X263773Y658860D01*
X258694D01*
X256155Y661399D01*
X240920Y674095D02*
X251077D01*
Y666478D01*
X245999Y669017D01*
X243459D01*
X240920Y666478D01*
Y661399D01*
X243459Y658860D01*
X248538D01*
X251077Y661399D01*
X948416Y437115D02*
X950955Y434576D01*
Y429497D01*
X948416Y426958D01*
X938259D01*
X935720Y429497D01*
Y434576D01*
X938259Y437115D01*
X935720Y449811D02*
X950955D01*
X943337Y442193D01*
Y452350D01*
X1062716Y433273D02*
X1065255Y430733D01*
Y425655D01*
X1062716Y423116D01*
X1052559D01*
X1050020Y425655D01*
Y430733D01*
X1052559Y433273D01*
X1062716Y438351D02*
X1065255Y440890D01*
Y445969D01*
X1062716Y448508D01*
X1060177D01*
X1057637Y445969D01*
Y443429D01*
Y445969D01*
X1055098Y448508D01*
X1052559D01*
X1050020Y445969D01*
Y440890D01*
X1052559Y438351D01*
X411245Y143236D02*
X413784Y145775D01*
X418863D01*
X421402Y143236D01*
Y133079D01*
X418863Y130540D01*
X413784D01*
X411245Y133079D01*
X406167Y130540D02*
X401089D01*
X403628D01*
Y145775D01*
X406167Y143236D01*
D46*
X127508Y97790D02*
X125610Y99442D01*
X123528Y100853D01*
X121290Y102003D01*
X118930Y102875D01*
X116482Y103456D01*
X113982Y103738D01*
X111466Y103716D01*
X108971Y103392D01*
X106533Y102768D01*
X104189Y101856D01*
X101971Y100668D01*
X99913Y99221D01*
X98044Y97536D01*
X117552Y147116D02*
X116834Y149561D01*
X114909Y151229D01*
X112386Y151592D01*
X110069Y150533D01*
X108691Y148390D01*
Y145842D01*
X110069Y143698D01*
X112386Y142639D01*
X114909Y143002D01*
X116834Y144671D01*
X117552Y147116D01*
X134316Y200710D02*
X133598Y203155D01*
X131673Y204823D01*
X129150Y205186D01*
X126833Y204127D01*
X125455Y201984D01*
Y199436D01*
X126833Y197292D01*
X129150Y196233D01*
X131673Y196596D01*
X133598Y198265D01*
X134316Y200710D01*
X95962Y200456D02*
X95244Y202901D01*
X93319Y204569D01*
X90796Y204932D01*
X88478Y203873D01*
X87101Y201730D01*
Y199182D01*
X88478Y197038D01*
X90796Y195979D01*
X93319Y196342D01*
X95244Y198011D01*
X95962Y200456D01*
X351536Y549656D02*
Y645160D01*
X351790Y644906D01*
X403860D01*
Y543560D02*
Y644906D01*
X351790Y543560D02*
X403860D01*
X351536Y543814D02*
X351790Y543560D01*
X351536Y543814D02*
Y549656D01*
X394462Y644906D02*
X398018Y644652D01*
X285496Y549656D02*
Y645160D01*
X285750Y644906D01*
X337820D01*
Y543560D02*
Y644906D01*
X285750Y543560D02*
X337820D01*
X285496Y543814D02*
X285750Y543560D01*
X285496Y543814D02*
Y549656D01*
X328422Y644906D02*
X331978Y644652D01*
X205740Y38100D02*
Y198120D01*
X259842D01*
Y38100D02*
Y198120D01*
X250190Y38100D02*
Y197866D01*
X205740Y38100D02*
X259842D01*
X127762Y97536D02*
X156718D01*
X69088Y97282D02*
X97790D01*
X113030Y188468D02*
X122936Y198374D01*
X113030Y152146D02*
Y188468D01*
X84582Y211836D02*
X91440Y204978D01*
X67818Y211836D02*
X84582D01*
X131318Y205232D02*
X137922Y211836D01*
X157226D01*
X193040Y54610D02*
Y242570D01*
X33020Y54610D02*
Y242570D01*
Y54610D02*
X193040D01*
X33020Y242570D02*
X193040D01*
X112776Y82804D02*
Y141986D01*
D48*
X303770Y298970D02*
X305890Y297530D01*
X308147Y296316D01*
X310517Y295341D01*
X312975Y294615D01*
X315494Y294147D01*
X318049Y293940D01*
X320611Y293998D01*
X323153Y294320D01*
X325649Y294901D01*
X328072Y295737D01*
X330395Y296818D01*
X332595Y298133D01*
X334648Y299667D01*
X336532Y301405D01*
X338226Y303327D01*
X339714Y305414D01*
X340979Y307643D01*
X342007Y309990D01*
X342788Y312431D01*
X343313Y314940D01*
X343577Y317489D01*
Y320051D01*
X343313Y322601D01*
X342788Y325109D01*
X342007Y327550D01*
X340979Y329897D01*
X339714Y332126D01*
X338226Y334213D01*
X336532Y336135D01*
X334648Y337873D01*
X332595Y339407D01*
X330395Y340722D01*
X328072Y341803D01*
X325649Y342639D01*
X323153Y343220D01*
X320611Y343542D01*
X318049Y343600D01*
X315494Y343393D01*
X312975Y342925D01*
X310517Y342199D01*
X308147Y341224D01*
X305890Y340010D01*
X303770Y338570D01*
X412280Y540550D02*
Y640550D01*
X512280Y540550D02*
Y631190D01*
X412280Y640550D02*
X502920D01*
X412280Y540550D02*
X512280D01*
X502920Y640550D02*
X512280Y631190D01*
X214150Y535470D02*
Y635470D01*
X154150D02*
X214150D01*
X154150Y535470D02*
Y635470D01*
Y535470D02*
X214150D01*
X204150D02*
X207900Y522720D01*
X203400Y521470D02*
X207900Y522720D01*
X199150Y535470D02*
X203400Y521470D01*
X160400Y522720D02*
X164150Y535470D01*
X160400Y522720D02*
X164900Y521470D01*
X169150Y535470D01*
X160400Y648220D02*
X164150Y635470D01*
X160400Y648220D02*
X164900Y649470D01*
X169150Y635470D01*
X204150D02*
X207900Y648220D01*
X203400Y649470D02*
X207900Y648220D01*
X199150Y635470D02*
X203400Y649470D01*
X303770Y298970D02*
Y338570D01*
X384810Y121920D02*
X422910D01*
X384810Y7620D02*
Y121920D01*
Y7620D02*
X422910D01*
Y121920D01*
X1041400Y421640D02*
Y459740D01*
X927100D02*
X1041400D01*
X927100Y421640D02*
Y459740D01*
Y421640D02*
X1041400D01*
X927100Y425450D02*
Y463550D01*
X812800D02*
X927100D01*
X812800Y425450D02*
Y463550D01*
Y425450D02*
X927100D01*
X229870Y650240D02*
X267970D01*
X229870Y535940D02*
Y650240D01*
Y535940D02*
X267970D01*
Y650240D01*
X565150Y269240D02*
Y320040D01*
X679450D01*
Y294640D02*
Y320040D01*
X666750Y294640D02*
X679450D01*
X666750Y269240D02*
Y294640D01*
X565150Y269240D02*
X666750D01*
X189150Y520470D02*
Y523802D01*
Y522136D01*
X199147D01*
X197481Y520470D01*
X189150Y652134D02*
Y645470D01*
X195814Y652134D01*
X197481D01*
X199147Y650468D01*
Y647136D01*
X197481Y645470D01*
X177481Y518720D02*
X179147Y520386D01*
Y523718D01*
X177481Y525384D01*
X175814D01*
X174148Y523718D01*
Y522052D01*
Y523718D01*
X172482Y525384D01*
X170816D01*
X169150Y523718D01*
Y520386D01*
X170816Y518720D01*
X169150Y650468D02*
X179147D01*
X174148Y645470D01*
Y652134D01*
D84*
X306520Y290470D02*
X304645Y291553D01*
Y289387D01*
X306520Y290470D01*
D85*
X1077214Y463550D02*
X1074654Y463406D01*
X1072127Y462977D01*
X1069664Y462267D01*
X1067295Y461286D01*
X1065052Y460046D01*
X1062961Y458563D01*
X1061049Y456855D01*
X1059341Y454943D01*
X1057858Y452852D01*
X1056618Y450609D01*
X1055637Y448240D01*
X1054927Y445777D01*
X1054498Y443250D01*
X1054354Y440690D01*
X1054498Y438130D01*
X1054927Y435603D01*
X1055637Y433140D01*
X1056618Y430771D01*
X1057858Y428528D01*
X1059341Y426437D01*
X1061049Y424525D01*
X1062961Y422817D01*
X1065052Y421334D01*
X1067295Y420094D01*
X1069664Y419113D01*
X1072127Y418403D01*
X1074654Y417974D01*
X1077214Y417830D01*
X1140206D02*
X1142766Y417974D01*
X1145293Y418403D01*
X1147756Y419113D01*
X1150125Y420094D01*
X1152368Y421334D01*
X1154459Y422817D01*
X1156370Y424525D01*
X1158079Y426437D01*
X1159562Y428528D01*
X1160802Y430771D01*
X1161783Y433140D01*
X1162493Y435603D01*
X1162922Y438130D01*
X1163066Y440690D01*
X1162922Y443249D01*
X1162493Y445777D01*
X1161783Y448240D01*
X1160802Y450608D01*
X1159562Y452852D01*
X1158079Y454943D01*
X1156370Y456854D01*
X1154459Y458563D01*
X1152368Y460046D01*
X1150125Y461286D01*
X1147756Y462267D01*
X1145293Y462977D01*
X1142766Y463406D01*
X1140206Y463550D01*
X1077214D02*
X1140206D01*
X1077214Y417830D02*
X1140206D01*
D86*
X281940Y148590D02*
X295910D01*
X281940Y109220D02*
Y148590D01*
Y109220D02*
X295910D01*
X309880D02*
Y148590D01*
X295910Y109220D02*
X309880D01*
X295910Y133350D02*
Y148590D01*
Y109220D02*
Y123190D01*
X290830D02*
X295910Y133350D01*
X290830Y123190D02*
X300990D01*
X295910Y133350D02*
X300990Y123190D01*
X290830Y133350D02*
X300990D01*
X295910Y148590D02*
Y162560D01*
Y92710D02*
Y109220D01*
Y86360D02*
Y93980D01*
Y86360D02*
Y93980D01*
Y162560D02*
Y170180D01*
Y162560D02*
Y170180D01*
X306070Y148590D02*
X309880D01*
X295910D02*
X306070D01*
D87*
X350774Y103886D02*
X352806D01*
X350774Y112014D02*
X352806D01*
X338074Y113792D02*
X365252D01*
X338074Y102108D02*
Y113792D01*
Y102108D02*
X365252D01*
Y113792D01*
X605536Y443484D02*
Y445516D01*
X613664Y443484D02*
Y445516D01*
X615442Y431038D02*
Y458216D01*
X603758D02*
X615442D01*
X603758Y431038D02*
Y458216D01*
Y431038D02*
X615442D01*
X344424Y51816D02*
X346456D01*
X344424Y59944D02*
X346456D01*
X331724Y61722D02*
X358902D01*
X331724Y50038D02*
Y61722D01*
Y50038D02*
X358902D01*
Y61722D01*
X890016Y600964D02*
Y602996D01*
X898144Y600964D02*
Y602996D01*
X899922Y588518D02*
Y615696D01*
X888238D02*
X899922D01*
X888238Y588518D02*
Y615696D01*
Y588518D02*
X899922D01*
X860806Y600964D02*
Y602996D01*
X868934Y600964D02*
Y602996D01*
X870712Y588518D02*
Y615696D01*
X859028D02*
X870712D01*
X859028Y588518D02*
Y615696D01*
Y588518D02*
X870712D01*
X835406Y600964D02*
Y602996D01*
X843534Y600964D02*
Y602996D01*
X845312Y588518D02*
Y615696D01*
X833628D02*
X845312D01*
X833628Y588518D02*
Y615696D01*
Y588518D02*
X845312D01*
X807466Y600964D02*
Y602996D01*
X815594Y600964D02*
Y602996D01*
X817372Y588518D02*
Y615696D01*
X805688D02*
X817372D01*
X805688Y588518D02*
Y615696D01*
Y588518D02*
X817372D01*
X288544Y18796D02*
X290576D01*
X288544Y26924D02*
X290576D01*
X275844Y28702D02*
X303022D01*
X275844Y17018D02*
Y28702D01*
Y17018D02*
X303022D01*
Y28702D01*
X260096Y30734D02*
Y32766D01*
X268224Y30734D02*
Y32766D01*
X270002Y18288D02*
Y45466D01*
X258318D02*
X270002D01*
X258318Y18288D02*
Y45466D01*
Y18288D02*
X270002D01*
D88*
X506380Y629688D02*
X496383D01*
X501382Y634686D02*
Y624689D01*
X426720Y547248D02*
X416723D01*
X508000Y547166D02*
X505501Y549665D01*
X500502D01*
X498003Y552164D01*
X426720Y628446D02*
X424221Y630945D01*
X419222D01*
X416723Y633444D01*
D89*
X399288Y594487D02*
D03*
X333248D02*
D03*
D90*
X295910Y141609D02*
D03*
M02*
