M48
;Layer_Color=9474304
;FILE_FORMAT=4:4
METRIC,LZ
;TYPE=PLATED
T1F00S00C0.5080
T2F00S00C0.7000
T3F00S00C0.7874
T4F00S00C0.8000
T5F00S00C0.8636
T6F00S00C0.9000
T7F00S00C0.9144
T8F00S00C0.9906
T9F00S00C1.0160
T10F00S00C1.0200
T11F00S00C1.0668
T12F00S00C1.1430
T13F00S00C1.2000
T14F00S00C1.5240
%
T01
X00583692Y00451612
T02
X0040386Y0002667
Y0010287
X0094615Y0044069
X0102235
X0090805Y004445
X0083185
X0064135Y0029464
X0061595
X0059055
X0024892Y0055499
Y0063119
T03
X0043307Y0004318
X0048387
T04
X01083192Y00440683
X01133193
X0020915Y0051047
X0015915
Y0066047
X0020915
T05
X0094488Y0041021
X0097028
X0099568
X0102108
X0104648
X0107188
X0109728
X0112268
X0114808
X0117348
X0091948
X0089408
X0086868
X0084328
X0081788
X0079248
X0076708
X0074168
X0071628
X0069088
Y0056261
X0071628
X0074168
X0076708
X0079248
X0081788
X0084328
X0086868
X0089408
X0091948
X0094488
X0097028
X0099568
X0102108
X0104648
X0107188
X0109728
X0112268
X0114808
X0117348
T06
X0031877Y0030607
Y0031877
Y0033147
X0010541Y006477
X0008001
X005588Y0058547
X006096
T07
X0094869Y0036322
X0097409
X0092329
X0089789
X0087249
X0084709
X0082169
X0079629
X0077089
X0074549
X0072009
X0069469
X0066929
X0064389
X0061849
X0059309
X0002794Y00393954
Y00418846
Y004445
T08
X003048Y0056896
Y0059436
Y0061976
X0037084
Y0059436
Y0056896
T09
X0029591Y0007747
Y0017907
T10
X0003175Y0053086
Y0055626
Y0058166
Y0060706
T11
X007112Y0064389
X007366
X00762
X007874
X008128
X008382
X008636
X00889
T12
X0005207Y0009017
X0011303Y0006477
X0017272Y0004699
X0017399Y0009017
Y0021209
X0017272Y0030099
X0005207Y0021209
T13
X0043688Y0056515
Y0061595
X0048768
Y0056515
T14
X0023114Y000635
Y0011811
Y0017272
M30
