G04 Layer_Physical_Order=1*
G04 Layer_Color=255*
%FSLAX44Y44*%
%MOMM*%
G71*
G01*
G75*
%ADD10R,2.6000X1.5000*%
%ADD11C,0.5080*%
%ADD12R,1.8000X1.8000*%
%ADD13C,1.8000*%
%ADD14C,2.1000*%
%ADD15R,2.1000X2.1000*%
%ADD16R,2.5400X2.0320*%
%ADD17O,2.5400X2.0320*%
%ADD18C,2.0000*%
%ADD19R,3.8100X3.3020*%
%ADD20O,3.8100X3.3020*%
%ADD21C,1.7780*%
%ADD22O,2.0000X1.0000*%
%ADD23O,2.0000X1.0000*%
%ADD24C,1.6000*%
%ADD25C,1.2000*%
%ADD26O,1.3000X1.5000*%
%ADD27R,1.2954X1.4986*%
%ADD28C,2.5400*%
%ADD29R,2.5400X2.5400*%
%ADD30C,1.9050*%
%ADD31R,1.5000X1.5000*%
%ADD32C,1.5000*%
%ADD33O,1.5748X2.2860*%
%ADD34R,1.5748X2.2860*%
%ADD35C,1.5200*%
%ADD36R,1.5200X1.5200*%
%ADD37O,1.6510X2.2860*%
%ADD38R,1.6510X2.2860*%
%ADD39O,1.9050X1.6510*%
%ADD40R,1.2000X1.2000*%
%ADD41C,3.0480*%
%ADD42C,0.8890*%
G36*
X1344930Y675640D02*
Y-5080D01*
X-10524Y-11416D01*
X-11424Y-10520D01*
Y679440D01*
X149465Y679593D01*
X149784Y678323D01*
X147895Y677314D01*
X144825Y674794D01*
X142306Y671725D01*
X140434Y668222D01*
X139282Y664422D01*
X138892Y660470D01*
X139282Y656518D01*
X140434Y652718D01*
X142306Y649216D01*
X144825Y646146D01*
X147895Y643627D01*
X151398Y641755D01*
X155198Y640602D01*
X159150Y640213D01*
X163102Y640602D01*
X166902Y641755D01*
X170404Y643627D01*
X173474Y646146D01*
X175993Y649216D01*
X177865Y652718D01*
X179018Y656518D01*
X179407Y660470D01*
X179018Y664422D01*
X177865Y668222D01*
X175993Y671725D01*
X173474Y674794D01*
X170404Y677314D01*
X168483Y678341D01*
X168800Y679611D01*
X199554Y679640D01*
X199873Y678370D01*
X197896Y677314D01*
X194826Y674794D01*
X192307Y671725D01*
X190435Y668222D01*
X189282Y664422D01*
X188893Y660470D01*
X189282Y656518D01*
X190435Y652718D01*
X192307Y649216D01*
X194826Y646146D01*
X197896Y643627D01*
X201398Y641755D01*
X205198Y640602D01*
X209150Y640213D01*
X213102Y640602D01*
X216902Y641755D01*
X220405Y643627D01*
X223475Y646146D01*
X225994Y649216D01*
X227866Y652718D01*
X229018Y656518D01*
X229408Y660470D01*
X229018Y664422D01*
X227866Y668222D01*
X225994Y671725D01*
X223475Y674794D01*
X220405Y677314D01*
X218395Y678388D01*
X218712Y679658D01*
X1339850Y680720D01*
X1344930Y675640D01*
D02*
G37*
%LPC*%
G36*
X105410Y665445D02*
X101948Y665105D01*
X98940Y664192D01*
X97670Y664834D01*
Y665360D01*
X62350D01*
Y630040D01*
X92600D01*
Y564210D01*
X93037Y560894D01*
X94317Y557805D01*
X96352Y555152D01*
X139084Y512420D01*
X138892Y510470D01*
X139282Y506518D01*
X140434Y502718D01*
X142306Y499215D01*
X144825Y496146D01*
X147895Y493626D01*
X151398Y491754D01*
X155198Y490602D01*
X159150Y490212D01*
X163102Y490602D01*
X166902Y491754D01*
X170404Y493626D01*
X173474Y496146D01*
X175993Y499215D01*
X177865Y502718D01*
X179018Y506518D01*
X179407Y510470D01*
X179018Y514422D01*
X177865Y518222D01*
X175993Y521724D01*
X173474Y524794D01*
X170404Y527313D01*
X166902Y529185D01*
X163102Y530338D01*
X159150Y530727D01*
X157200Y530535D01*
X118220Y569516D01*
Y635471D01*
X120165Y637841D01*
X121805Y640909D01*
X122815Y644238D01*
X123155Y647700D01*
X122815Y651162D01*
X121805Y654491D01*
X120165Y657559D01*
X117958Y660248D01*
X115269Y662455D01*
X112201Y664095D01*
X108872Y665105D01*
X105410Y665445D01*
D02*
G37*
G36*
X863600Y665569D02*
X859990Y665214D01*
X856519Y664161D01*
X853320Y662451D01*
X850900Y660465D01*
X848480Y662451D01*
X845281Y664161D01*
X841810Y665214D01*
X838200Y665569D01*
X834590Y665214D01*
X831119Y664161D01*
X827920Y662451D01*
X825500Y660465D01*
X823080Y662451D01*
X819881Y664161D01*
X816410Y665214D01*
X812800Y665569D01*
X809190Y665214D01*
X805719Y664161D01*
X802520Y662451D01*
X800100Y660465D01*
X797680Y662451D01*
X794481Y664161D01*
X791010Y665214D01*
X787400Y665569D01*
X783790Y665214D01*
X780319Y664161D01*
X777120Y662451D01*
X774700Y660465D01*
X772280Y662451D01*
X769081Y664161D01*
X765610Y665214D01*
X762000Y665569D01*
X758390Y665214D01*
X754919Y664161D01*
X751720Y662451D01*
X749300Y660465D01*
X746880Y662451D01*
X743681Y664161D01*
X740210Y665214D01*
X736600Y665569D01*
X732990Y665214D01*
X729519Y664161D01*
X726320Y662451D01*
X723900Y660465D01*
X721480Y662451D01*
X718281Y664161D01*
X714810Y665214D01*
X711200Y665569D01*
X707590Y665214D01*
X704119Y664161D01*
X700920Y662451D01*
X698116Y660149D01*
X695814Y657345D01*
X694104Y654146D01*
X693051Y650675D01*
X692696Y647065D01*
Y640715D01*
X693051Y637105D01*
X694104Y633634D01*
X695814Y630435D01*
X698116Y627631D01*
X700920Y625329D01*
X704119Y623619D01*
X707590Y622566D01*
X711200Y622211D01*
X714810Y622566D01*
X718281Y623619D01*
X721480Y625329D01*
X723900Y627315D01*
X726320Y625329D01*
X729519Y623619D01*
X732990Y622566D01*
X735041Y622365D01*
X735514Y621042D01*
X732622Y618150D01*
X730587Y615497D01*
X729307Y612407D01*
X728870Y609092D01*
Y580263D01*
X674243D01*
Y544957D01*
X869586D01*
Y449072D01*
X870023Y445757D01*
X871303Y442667D01*
X873338Y440014D01*
X884316Y429036D01*
X883830Y427863D01*
X699643D01*
Y426652D01*
X698554Y425999D01*
X697286Y426676D01*
X694146Y427629D01*
X690880Y427951D01*
X687614Y427629D01*
X684474Y426676D01*
X681579Y425129D01*
X679043Y423047D01*
X676961Y420511D01*
X675414Y417616D01*
X674461Y414476D01*
X674139Y411210D01*
Y409210D01*
X674461Y405944D01*
X675414Y402804D01*
X676961Y399909D01*
X677868Y398804D01*
X671604Y392540D01*
X582676D01*
X579361Y392103D01*
X576271Y390823D01*
X573618Y388788D01*
X571078Y386248D01*
X569043Y383595D01*
X567763Y380505D01*
X567326Y377190D01*
Y349250D01*
X567763Y345935D01*
X569043Y342845D01*
X571078Y340192D01*
X588916Y322354D01*
Y303180D01*
X582010D01*
Y286100D01*
X588916D01*
Y166342D01*
X485386Y62811D01*
X483870Y62960D01*
X480011Y62580D01*
X476300Y61455D01*
X472881Y59627D01*
X469883Y57167D01*
X467423Y54169D01*
X465595Y50750D01*
X464470Y47039D01*
X464090Y43180D01*
X464470Y39321D01*
X465595Y35610D01*
X467423Y32191D01*
X469883Y29193D01*
X472881Y26733D01*
X476300Y24905D01*
X480011Y23780D01*
X483870Y23400D01*
X487729Y23780D01*
X491440Y24905D01*
X494859Y26733D01*
X497857Y29193D01*
X500317Y32191D01*
X502145Y35610D01*
X503270Y39321D01*
X503650Y43180D01*
X503501Y44696D01*
X610784Y151978D01*
X612819Y154631D01*
X614099Y157721D01*
X614536Y161036D01*
Y277596D01*
X615477Y278449D01*
X615950Y278402D01*
X619118Y278714D01*
X622164Y279638D01*
X624971Y281138D01*
X627432Y283158D01*
X628015Y283868D01*
X629285D01*
X629868Y283158D01*
X632329Y281138D01*
X635136Y279638D01*
X638182Y278714D01*
X641350Y278402D01*
X644518Y278714D01*
X647564Y279638D01*
X650371Y281138D01*
X652832Y283158D01*
X654852Y285619D01*
X656352Y288426D01*
X657276Y291472D01*
X657588Y294640D01*
X657276Y297808D01*
X656352Y300854D01*
X654852Y303661D01*
X652832Y306122D01*
X650371Y308141D01*
X647564Y309642D01*
X644518Y310566D01*
X641350Y310878D01*
X638182Y310566D01*
X635136Y309642D01*
X632329Y308141D01*
X630030Y306255D01*
X628760Y306538D01*
Y323992D01*
X629583Y325065D01*
X630863Y328155D01*
X631300Y331470D01*
Y345182D01*
X632448Y345725D01*
X633822Y344597D01*
X636955Y342922D01*
X640355Y341891D01*
X643890Y341543D01*
X647425Y341891D01*
X650825Y342922D01*
X653958Y344597D01*
X655332Y345725D01*
X656480Y345182D01*
Y313690D01*
X656917Y310375D01*
X658197Y307285D01*
X660232Y304632D01*
X671662Y293202D01*
X674315Y291167D01*
X677405Y289887D01*
X680720Y289450D01*
X1113790D01*
X1117105Y289887D01*
X1120195Y291167D01*
X1122848Y293202D01*
X1182538Y352892D01*
X1184573Y355545D01*
X1185853Y358635D01*
X1186290Y361950D01*
Y392557D01*
X1190117D01*
Y427863D01*
X1172574D01*
Y544957D01*
X1190117D01*
Y580263D01*
X955138D01*
X953938Y581828D01*
X951398Y584368D01*
X948745Y586403D01*
X945655Y587683D01*
X942340Y588120D01*
X884936D01*
X882760Y587833D01*
X881490Y588947D01*
Y597944D01*
X898058Y614512D01*
X900093Y617165D01*
X901373Y620255D01*
X901642Y622300D01*
X907415D01*
Y665480D01*
X870585D01*
Y665256D01*
X869565Y664499D01*
X867210Y665214D01*
X863600Y665569D01*
D02*
G37*
G36*
X33020Y617120D02*
Y608330D01*
X41810D01*
X41629Y609707D01*
X40607Y612174D01*
X38982Y614292D01*
X36864Y615917D01*
X34397Y616939D01*
X33020Y617120D01*
D02*
G37*
G36*
X30480D02*
X29103Y616939D01*
X26636Y615917D01*
X24518Y614292D01*
X22893Y612174D01*
X21871Y609707D01*
X21690Y608330D01*
X30480D01*
Y617120D01*
D02*
G37*
G36*
X506840Y635110D02*
X468520D01*
Y596790D01*
X506840D01*
Y635110D01*
D02*
G37*
G36*
X436880Y635203D02*
X433124Y634833D01*
X429512Y633737D01*
X426184Y631958D01*
X423266Y629564D01*
X420872Y626646D01*
X419093Y623318D01*
X417997Y619706D01*
X417627Y615950D01*
X417997Y612194D01*
X419093Y608582D01*
X420872Y605254D01*
X423266Y602336D01*
X426184Y599942D01*
X429512Y598163D01*
X433124Y597067D01*
X436880Y596697D01*
X440636Y597067D01*
X444248Y598163D01*
X447576Y599942D01*
X450494Y602336D01*
X452888Y605254D01*
X454667Y608582D01*
X455763Y612194D01*
X456133Y615950D01*
X455763Y619706D01*
X454667Y623318D01*
X452888Y626646D01*
X450494Y629564D01*
X447576Y631958D01*
X444248Y633737D01*
X440636Y634833D01*
X436880Y635203D01*
D02*
G37*
G36*
X560070Y598455D02*
Y586740D01*
X571785D01*
X571504Y588874D01*
X570190Y592046D01*
X568100Y594770D01*
X565376Y596860D01*
X562204Y598174D01*
X560070Y598455D01*
D02*
G37*
G36*
X557530D02*
X555396Y598174D01*
X552224Y596860D01*
X549500Y594770D01*
X547410Y592046D01*
X546096Y588874D01*
X545815Y586740D01*
X557530D01*
Y598455D01*
D02*
G37*
G36*
X571785Y584200D02*
X560070D01*
Y572485D01*
X562204Y572766D01*
X565376Y574080D01*
X568100Y576170D01*
X570190Y578894D01*
X571504Y582066D01*
X571785Y584200D01*
D02*
G37*
G36*
X557530D02*
X545815D01*
X546096Y582066D01*
X547410Y578894D01*
X549500Y576170D01*
X552224Y574080D01*
X555396Y572766D01*
X557530Y572485D01*
Y584200D01*
D02*
G37*
G36*
X438150Y576622D02*
Y566420D01*
X448352D01*
X448123Y568162D01*
X446960Y570970D01*
X445110Y573380D01*
X442700Y575230D01*
X439893Y576393D01*
X438150Y576622D01*
D02*
G37*
G36*
X435610D02*
X433867Y576393D01*
X431060Y575230D01*
X428650Y573380D01*
X426800Y570970D01*
X425637Y568162D01*
X425408Y566420D01*
X435610D01*
Y576622D01*
D02*
G37*
G36*
X630260Y606130D02*
X588940D01*
Y564810D01*
X630260D01*
Y606130D01*
D02*
G37*
G36*
X448352Y563880D02*
X438150D01*
Y553678D01*
X439893Y553907D01*
X442700Y555070D01*
X445110Y556920D01*
X446960Y559330D01*
X448123Y562137D01*
X448352Y563880D01*
D02*
G37*
G36*
X435610D02*
X425408D01*
X425637Y562137D01*
X426800Y559330D01*
X428650Y556920D01*
X431060Y555070D01*
X433867Y553907D01*
X435610Y553678D01*
Y563880D01*
D02*
G37*
G36*
X257367Y553720D02*
X250190D01*
Y546544D01*
X251149Y546670D01*
X253227Y547530D01*
X255011Y548899D01*
X256380Y550683D01*
X257240Y552761D01*
X257367Y553720D01*
D02*
G37*
G36*
X247650D02*
X240473D01*
X240600Y552761D01*
X241460Y550683D01*
X242829Y548899D01*
X244613Y547530D01*
X246691Y546670D01*
X247650Y546544D01*
Y553720D01*
D02*
G37*
G36*
X487680Y584403D02*
X483924Y584033D01*
X480312Y582937D01*
X476984Y581158D01*
X474066Y578764D01*
X471672Y575846D01*
X469893Y572518D01*
X468797Y568906D01*
X468427Y565150D01*
X468797Y561394D01*
X469893Y557782D01*
X471672Y554454D01*
X474066Y551536D01*
X476984Y549142D01*
X480312Y547363D01*
X483924Y546267D01*
X487680Y545897D01*
X491436Y546267D01*
X495048Y547363D01*
X498376Y549142D01*
X501294Y551536D01*
X503688Y554454D01*
X505467Y557782D01*
X506563Y561394D01*
X506933Y565150D01*
X506563Y568906D01*
X505467Y572518D01*
X503688Y575846D01*
X501294Y578764D01*
X498376Y581158D01*
X495048Y582937D01*
X491436Y584033D01*
X487680Y584403D01*
D02*
G37*
G36*
X41810Y605790D02*
X31750D01*
X21690D01*
X21871Y604413D01*
X22893Y601946D01*
X24518Y599828D01*
X25140Y599351D01*
X25133Y599316D01*
X24745Y598053D01*
X21835Y596498D01*
X19131Y594279D01*
X16912Y591575D01*
X15263Y588489D01*
X14247Y585142D01*
X13904Y581660D01*
X14247Y578178D01*
X15263Y574831D01*
X16912Y571745D01*
X18405Y569926D01*
X19075Y568960D01*
X18405Y567994D01*
X16912Y566175D01*
X15263Y563089D01*
X14247Y559742D01*
X13904Y556260D01*
X14247Y552778D01*
X15123Y549890D01*
X14410Y548620D01*
X13990D01*
Y513100D01*
X49510D01*
Y548620D01*
X49090D01*
X48377Y549890D01*
X49253Y552778D01*
X49596Y556260D01*
X49253Y559742D01*
X48238Y563089D01*
X46588Y566175D01*
X45095Y567994D01*
X44425Y568960D01*
X45095Y569926D01*
X46588Y571745D01*
X48238Y574831D01*
X49253Y578178D01*
X49596Y581660D01*
X49253Y585142D01*
X48238Y588489D01*
X46588Y591575D01*
X44369Y594279D01*
X41665Y596498D01*
X38755Y598053D01*
X38367Y599316D01*
X38360Y599351D01*
X38982Y599828D01*
X40607Y601946D01*
X41629Y604413D01*
X41810Y605790D01*
D02*
G37*
G36*
X209150Y530727D02*
X205198Y530338D01*
X201398Y529185D01*
X197896Y527313D01*
X194826Y524794D01*
X192307Y521724D01*
X190435Y518222D01*
X189282Y514422D01*
X188893Y510470D01*
X189282Y506518D01*
X190435Y502718D01*
X192307Y499215D01*
X194826Y496146D01*
X197896Y493626D01*
X201398Y491754D01*
X205198Y490602D01*
X209150Y490212D01*
X213102Y490602D01*
X216902Y491754D01*
X220405Y493626D01*
X223475Y496146D01*
X225994Y499215D01*
X227866Y502718D01*
X229018Y506518D01*
X229408Y510470D01*
X229018Y514422D01*
X227866Y518222D01*
X225994Y521724D01*
X223475Y524794D01*
X220405Y527313D01*
X216902Y529185D01*
X213102Y530338D01*
X209150Y530727D01*
D02*
G37*
G36*
X833120Y452947D02*
Y445770D01*
X840296D01*
X840170Y446729D01*
X839310Y448807D01*
X837941Y450591D01*
X836157Y451960D01*
X834079Y452820D01*
X833120Y452947D01*
D02*
G37*
G36*
X830580D02*
X829621Y452820D01*
X827543Y451960D01*
X825759Y450591D01*
X824390Y448807D01*
X823530Y446729D01*
X823403Y445770D01*
X830580D01*
Y452947D01*
D02*
G37*
G36*
X840296Y443230D02*
X833120D01*
Y436054D01*
X834079Y436180D01*
X836157Y437040D01*
X837941Y438409D01*
X839310Y440193D01*
X840170Y442271D01*
X840296Y443230D01*
D02*
G37*
G36*
X830580D02*
X823403D01*
X823530Y442271D01*
X824390Y440193D01*
X825759Y438409D01*
X827543Y437040D01*
X829621Y436180D01*
X830580Y436054D01*
Y443230D01*
D02*
G37*
G36*
X620060Y438270D02*
X605790D01*
Y429500D01*
X620060D01*
Y438270D01*
D02*
G37*
G36*
X627680Y475890D02*
X581360D01*
Y467370D01*
X581253Y467288D01*
X579753Y465789D01*
X576326Y464370D01*
X573276Y462028D01*
X570934Y458978D01*
X569463Y455425D01*
X568961Y451612D01*
X569463Y447799D01*
X570934Y444246D01*
X573276Y441196D01*
X576326Y438854D01*
X579879Y437383D01*
X583692Y436881D01*
X587505Y437383D01*
X587924Y437557D01*
X588980Y436851D01*
Y429500D01*
X603250D01*
Y438270D01*
X592382D01*
X591950Y439540D01*
X593293Y440570D01*
X627680D01*
Y475890D01*
D02*
G37*
G36*
X620060Y426960D02*
X605790D01*
Y418190D01*
X620060D01*
Y426960D01*
D02*
G37*
G36*
X603250D02*
X588980D01*
Y418190D01*
X603250D01*
Y426960D01*
D02*
G37*
G36*
X29210Y463004D02*
X26670D01*
X23060Y462649D01*
X19589Y461596D01*
X16390Y459886D01*
X13586Y457584D01*
X11284Y454780D01*
X9574Y451581D01*
X8521Y448110D01*
X8166Y444500D01*
X8521Y440890D01*
X9574Y437419D01*
X11284Y434220D01*
X13374Y431673D01*
X11284Y429126D01*
X9574Y425927D01*
X8521Y422456D01*
X8166Y418846D01*
X8521Y415236D01*
X9574Y411765D01*
X11284Y408566D01*
X13062Y406400D01*
X11284Y404234D01*
X9574Y401035D01*
X8521Y397564D01*
X8166Y393954D01*
X8521Y390344D01*
X9574Y386873D01*
X11284Y383674D01*
X13586Y380870D01*
X16390Y378568D01*
X19589Y376858D01*
X23060Y375805D01*
X26670Y375450D01*
X29210D01*
X32820Y375805D01*
X36291Y376858D01*
X39490Y378568D01*
X42294Y380870D01*
X44596Y383674D01*
X46306Y386873D01*
X47359Y390344D01*
X47714Y393954D01*
X47359Y397564D01*
X46306Y401035D01*
X44596Y404234D01*
X42818Y406400D01*
X44596Y408566D01*
X46306Y411765D01*
X47359Y415236D01*
X47714Y418846D01*
X47359Y422456D01*
X46306Y425927D01*
X44596Y429126D01*
X42506Y431673D01*
X44596Y434220D01*
X46306Y437419D01*
X47359Y440890D01*
X47714Y444500D01*
X47359Y448110D01*
X46306Y451581D01*
X44596Y454780D01*
X42294Y457584D01*
X39490Y459886D01*
X36291Y461596D01*
X32820Y462649D01*
X29210Y463004D01*
D02*
G37*
G36*
X248920Y647428D02*
X245752Y647116D01*
X242706Y646192D01*
X239899Y644691D01*
X237438Y642672D01*
X235418Y640211D01*
X233918Y637404D01*
X232994Y634358D01*
X232682Y631190D01*
X232994Y628022D01*
X233918Y624976D01*
X235418Y622169D01*
X236110Y621325D01*
Y580390D01*
X236547Y577075D01*
X237827Y573985D01*
X239862Y571332D01*
X246711Y564483D01*
X246265Y563134D01*
X244613Y562450D01*
X242829Y561081D01*
X241460Y559297D01*
X240600Y557219D01*
X240473Y556260D01*
X248920D01*
X258211D01*
X258363Y556412D01*
X260350Y556150D01*
X281940D01*
Y548640D01*
X325010D01*
Y347527D01*
X324069Y346674D01*
X323770Y346703D01*
X313770D01*
X310798Y346411D01*
X307940Y345544D01*
X305575Y344280D01*
X290830D01*
X287515Y343843D01*
X284425Y342563D01*
X281772Y340528D01*
X271612Y330368D01*
X269577Y327715D01*
X268297Y324625D01*
X267860Y321310D01*
Y170180D01*
X268297Y166865D01*
X269577Y163775D01*
X271612Y161122D01*
X398336Y34399D01*
X398252Y33132D01*
X397769Y32761D01*
X396400Y30977D01*
X395540Y28899D01*
X395461Y28304D01*
X209522D01*
X202265Y35560D01*
X202792Y36830D01*
X260350D01*
Y90170D01*
X234778D01*
X234728Y91440D01*
X237865Y91687D01*
X241947Y92667D01*
X245825Y94273D01*
X249405Y96467D01*
X252597Y99193D01*
X255323Y102385D01*
X257517Y105965D01*
X259123Y109843D01*
X260103Y113925D01*
X260432Y118110D01*
X260103Y122295D01*
X259123Y126377D01*
X257517Y130255D01*
X255323Y133835D01*
X252597Y137027D01*
X249405Y139753D01*
X245825Y141947D01*
X241947Y143553D01*
X237865Y144533D01*
X233680Y144862D01*
X228600D01*
X224415Y144533D01*
X220333Y143553D01*
X216455Y141947D01*
X212875Y139753D01*
X209683Y137027D01*
X206957Y133835D01*
X204763Y130255D01*
X203157Y126377D01*
X202177Y122295D01*
X201847Y118110D01*
X202177Y113925D01*
X203157Y109843D01*
X204763Y105965D01*
X206957Y102385D01*
X209683Y99193D01*
X212875Y96467D01*
X216455Y94273D01*
X220333Y92667D01*
X224415Y91687D01*
X227552Y91440D01*
X227502Y90170D01*
X201930D01*
Y37692D01*
X200660Y37166D01*
X195580Y42245D01*
Y69850D01*
X191153D01*
X190725Y71046D01*
X192037Y72123D01*
X195212Y75990D01*
X197570Y80403D01*
X199023Y85191D01*
X199513Y90170D01*
X199023Y95149D01*
X197570Y99937D01*
X195212Y104350D01*
X192037Y108217D01*
X188170Y111391D01*
X183757Y113750D01*
X178969Y115203D01*
X173990Y115693D01*
X169011Y115203D01*
X164223Y113750D01*
X159810Y111391D01*
X155943Y108217D01*
X152768Y104350D01*
X150410Y99937D01*
X148958Y95149D01*
X148467Y90170D01*
X148958Y85191D01*
X150410Y80403D01*
X152768Y75990D01*
X155943Y72123D01*
X157255Y71046D01*
X156827Y69850D01*
X149860D01*
Y24130D01*
X177465D01*
X195158Y6436D01*
X197811Y4401D01*
X200901Y3121D01*
X204216Y2684D01*
X411480D01*
X414795Y3121D01*
X417885Y4401D01*
X420538Y6436D01*
X424094Y9992D01*
X426129Y12645D01*
X427409Y15735D01*
X427846Y19050D01*
Y31142D01*
X428902Y31848D01*
X429920Y31425D01*
X431800Y31178D01*
Y43180D01*
Y55182D01*
X429920Y54935D01*
X426985Y53719D01*
X424465Y51785D01*
X422531Y49265D01*
X422140Y48319D01*
X420894Y48071D01*
X306923Y162042D01*
X307129Y163633D01*
X309446Y165534D01*
X311826Y168435D01*
X313595Y171745D01*
X314684Y175336D01*
X315052Y179070D01*
X314684Y182805D01*
X313595Y186395D01*
X311826Y189705D01*
X309446Y192606D01*
X308720Y193201D01*
Y288064D01*
X311696Y291041D01*
X313770Y290837D01*
X323770D01*
X326742Y291129D01*
X329600Y291996D01*
X332126Y293347D01*
X334785Y293697D01*
X337875Y294977D01*
X340528Y297012D01*
X346878Y303362D01*
X348913Y306015D01*
X350193Y309105D01*
X350630Y312420D01*
Y548640D01*
X393700D01*
Y589280D01*
X386165D01*
X385460Y590336D01*
X385753Y591045D01*
X386022Y593090D01*
X370840D01*
Y595630D01*
X386022D01*
X385753Y597675D01*
X384473Y600765D01*
X384046Y601322D01*
X384314Y602564D01*
X384724Y602783D01*
X387818Y605322D01*
X390357Y608416D01*
X392244Y611946D01*
X393406Y615777D01*
X393798Y619760D01*
X393406Y623743D01*
X392244Y627574D01*
X390357Y631104D01*
X387818Y634198D01*
X384724Y636737D01*
X381194Y638624D01*
X377363Y639786D01*
X373380Y640178D01*
X368300D01*
X364317Y639786D01*
X360486Y638624D01*
X356956Y636737D01*
X353862Y634198D01*
X352526Y632570D01*
X349250D01*
X345935Y632133D01*
X342845Y630853D01*
X340192Y628818D01*
X328805Y617430D01*
X328653Y617438D01*
X327578Y617931D01*
X327758Y619760D01*
X327366Y623743D01*
X326204Y627574D01*
X324317Y631104D01*
X321778Y634198D01*
X318684Y636737D01*
X315154Y638624D01*
X311323Y639786D01*
X307340Y640178D01*
X302260D01*
X298277Y639786D01*
X294446Y638624D01*
X290916Y636737D01*
X287822Y634198D01*
X285283Y631104D01*
X283396Y627574D01*
X282234Y623743D01*
X281842Y619760D01*
X282234Y615777D01*
X283396Y611946D01*
X285283Y608416D01*
X287822Y605322D01*
X290916Y602783D01*
X291326Y602564D01*
X291594Y601322D01*
X291167Y600765D01*
X289887Y597675D01*
X289618Y595630D01*
X304800D01*
Y593090D01*
X289618D01*
X289887Y591045D01*
X290180Y590336D01*
X289475Y589280D01*
X281940D01*
Y581770D01*
X265656D01*
X261730Y585696D01*
Y621325D01*
X262421Y622169D01*
X263922Y624976D01*
X264846Y628022D01*
X265158Y631190D01*
X264846Y634358D01*
X263922Y637404D01*
X262421Y640211D01*
X260402Y642672D01*
X257941Y644691D01*
X255134Y646192D01*
X252088Y647116D01*
X248920Y647428D01*
D02*
G37*
G36*
X172720Y323961D02*
X168239Y323519D01*
X163930Y322212D01*
X159958Y320089D01*
X156477Y317233D01*
X153621Y313752D01*
X151498Y309781D01*
X150191Y305471D01*
X149749Y300990D01*
X150191Y296509D01*
X151498Y292199D01*
X153621Y288228D01*
X156477Y284747D01*
X159958Y281891D01*
X163930Y279768D01*
X168239Y278461D01*
X172720Y278019D01*
X177201Y278461D01*
X181511Y279768D01*
X185482Y281891D01*
X188963Y284747D01*
X191819Y288228D01*
X193942Y292199D01*
X195249Y296509D01*
X195691Y300990D01*
X195249Y305471D01*
X193942Y309781D01*
X191819Y313752D01*
X188963Y317233D01*
X185482Y320089D01*
X181511Y322212D01*
X177201Y323519D01*
X172720Y323961D01*
D02*
G37*
G36*
X173990Y237613D02*
X169011Y237122D01*
X164223Y235670D01*
X159810Y233312D01*
X155943Y230137D01*
X152768Y226270D01*
X150410Y221857D01*
X148958Y217069D01*
X148467Y212090D01*
X148958Y207111D01*
X150410Y202323D01*
X152768Y197910D01*
X155943Y194043D01*
X159810Y190868D01*
X164223Y188510D01*
X169011Y187057D01*
X173990Y186567D01*
X178969Y187057D01*
X183757Y188510D01*
X188170Y190868D01*
X192037Y194043D01*
X195212Y197910D01*
X197570Y202323D01*
X199023Y207111D01*
X199513Y212090D01*
X199023Y217069D01*
X197570Y221857D01*
X195212Y226270D01*
X192037Y230137D01*
X188170Y233312D01*
X183757Y235670D01*
X178969Y237122D01*
X173990Y237613D01*
D02*
G37*
G36*
X52070D02*
X47091Y237122D01*
X42303Y235670D01*
X37890Y233312D01*
X34023Y230137D01*
X30849Y226270D01*
X28490Y221857D01*
X27037Y217069D01*
X26547Y212090D01*
X27037Y207111D01*
X28490Y202323D01*
X30849Y197910D01*
X34023Y194043D01*
X37890Y190868D01*
X42303Y188510D01*
X47091Y187057D01*
X52070Y186567D01*
X57049Y187057D01*
X61837Y188510D01*
X66250Y190868D01*
X70117Y194043D01*
X73292Y197910D01*
X75650Y202323D01*
X77102Y207111D01*
X77593Y212090D01*
X77102Y217069D01*
X75650Y221857D01*
X73292Y226270D01*
X70117Y230137D01*
X66250Y233312D01*
X61837Y235670D01*
X57049Y237122D01*
X52070Y237613D01*
D02*
G37*
G36*
X233680Y191862D02*
X232410D01*
Y173990D01*
X252697D01*
X252454Y176455D01*
X251365Y180045D01*
X249596Y183355D01*
X247216Y186256D01*
X244315Y188636D01*
X241005Y190405D01*
X237414Y191494D01*
X233680Y191862D01*
D02*
G37*
G36*
X229870D02*
X228600D01*
X224865Y191494D01*
X221275Y190405D01*
X217965Y188636D01*
X215064Y186256D01*
X212684Y183355D01*
X210915Y180045D01*
X209826Y176455D01*
X209583Y173990D01*
X229870D01*
Y191862D01*
D02*
G37*
G36*
X252697Y171450D02*
X232410D01*
Y153578D01*
X233680D01*
X237414Y153946D01*
X241005Y155035D01*
X244315Y156804D01*
X247216Y159184D01*
X249596Y162085D01*
X251365Y165395D01*
X252454Y168986D01*
X252697Y171450D01*
D02*
G37*
G36*
X229870D02*
X209583D01*
X209826Y168986D01*
X210915Y165395D01*
X212684Y162085D01*
X215064Y159184D01*
X217965Y156804D01*
X221275Y155035D01*
X224865Y153946D01*
X228600Y153578D01*
X229870D01*
Y171450D01*
D02*
G37*
G36*
X403860Y119108D02*
X400692Y118796D01*
X397646Y117872D01*
X394839Y116371D01*
X392378Y114352D01*
X390359Y111891D01*
X388858Y109084D01*
X387934Y106038D01*
X387622Y102870D01*
X387934Y99702D01*
X388858Y96656D01*
X390359Y93849D01*
X392378Y91388D01*
X394839Y89368D01*
X397646Y87868D01*
X400692Y86944D01*
X403860Y86632D01*
X407028Y86944D01*
X410074Y87868D01*
X412881Y89368D01*
X415342Y91388D01*
X417361Y93849D01*
X418862Y96656D01*
X419786Y99702D01*
X420098Y102870D01*
X419786Y106038D01*
X418862Y109084D01*
X417361Y111891D01*
X415342Y114352D01*
X412881Y116371D01*
X410074Y117872D01*
X407028Y118796D01*
X403860Y119108D01*
D02*
G37*
G36*
X52070Y115693D02*
X47091Y115203D01*
X42303Y113750D01*
X37890Y111391D01*
X34023Y108217D01*
X30849Y104350D01*
X28490Y99937D01*
X27037Y95149D01*
X26547Y90170D01*
X27037Y85191D01*
X28490Y80403D01*
X30849Y75990D01*
X34023Y72123D01*
X37890Y68948D01*
X42303Y66590D01*
X47091Y65138D01*
X52070Y64647D01*
X57049Y65138D01*
X61837Y66590D01*
X66250Y68948D01*
X70117Y72123D01*
X73292Y75990D01*
X75650Y80403D01*
X77102Y85191D01*
X77593Y90170D01*
X77102Y95149D01*
X75650Y99937D01*
X73292Y104350D01*
X70117Y108217D01*
X66250Y111391D01*
X61837Y113750D01*
X57049Y115203D01*
X52070Y115693D01*
D02*
G37*
G36*
X295910Y96612D02*
X292176Y96244D01*
X288585Y95155D01*
X285275Y93386D01*
X282374Y91006D01*
X279994Y88105D01*
X278225Y84795D01*
X277136Y81205D01*
X276768Y77470D01*
X277136Y73735D01*
X278225Y70145D01*
X279994Y66835D01*
X282374Y63934D01*
X285275Y61554D01*
X288585Y59785D01*
X292176Y58696D01*
X295910Y58328D01*
X299645Y58696D01*
X303235Y59785D01*
X306545Y61554D01*
X309446Y63934D01*
X311826Y66835D01*
X313595Y70145D01*
X314684Y73735D01*
X315052Y77470D01*
X314684Y81205D01*
X313595Y84795D01*
X311826Y88105D01*
X309446Y91006D01*
X306545Y93386D01*
X303235Y95155D01*
X299645Y96244D01*
X295910Y96612D01*
D02*
G37*
G36*
X434340Y55182D02*
Y44450D01*
X445072D01*
X444824Y46330D01*
X443609Y49265D01*
X441675Y51785D01*
X439155Y53719D01*
X436220Y54935D01*
X434340Y55182D01*
D02*
G37*
G36*
X113030Y90293D02*
X108051Y89803D01*
X103263Y88350D01*
X98850Y85991D01*
X94983Y82817D01*
X91809Y78950D01*
X89450Y74537D01*
X87998Y69749D01*
X87507Y64770D01*
X87998Y59791D01*
X89450Y55003D01*
X91809Y50590D01*
X94983Y46723D01*
X98850Y43548D01*
X103263Y41190D01*
X108051Y39738D01*
X113030Y39247D01*
X118009Y39738D01*
X122797Y41190D01*
X127210Y43548D01*
X131077Y46723D01*
X134251Y50590D01*
X136610Y55003D01*
X138062Y59791D01*
X138553Y64770D01*
X138062Y69749D01*
X136610Y74537D01*
X134251Y78950D01*
X131077Y82817D01*
X127210Y85991D01*
X122797Y88350D01*
X118009Y89803D01*
X113030Y90293D01*
D02*
G37*
G36*
X445072Y41910D02*
X434340D01*
Y31178D01*
X436220Y31425D01*
X439155Y32641D01*
X441675Y34575D01*
X443609Y37095D01*
X444824Y40030D01*
X445072Y41910D01*
D02*
G37*
%LPD*%
G36*
X802520Y625329D02*
X805719Y623619D01*
X809190Y622566D01*
X812800Y622211D01*
X816410Y622566D01*
X819881Y623619D01*
X823080Y625329D01*
X824242Y626283D01*
X825390Y625740D01*
Y620240D01*
X808822Y603672D01*
X806787Y601019D01*
X805507Y597929D01*
X805070Y594614D01*
Y580263D01*
X779890D01*
Y597944D01*
X796458Y614512D01*
X798493Y617165D01*
X799773Y620255D01*
X800210Y623570D01*
Y625740D01*
X801358Y626283D01*
X802520Y625329D01*
D02*
G37*
G36*
X1009987Y532329D02*
X1012022Y529676D01*
X1045354Y496344D01*
Y456097D01*
X1044084Y455666D01*
X1042584Y457622D01*
X1008490Y491716D01*
Y532625D01*
X1009760Y532877D01*
X1009987Y532329D01*
D02*
G37*
G36*
X1146954Y454469D02*
X1145684Y453924D01*
X1143331Y455855D01*
X1140176Y457542D01*
X1136752Y458580D01*
X1133193Y458931D01*
X1129633Y458580D01*
X1126209Y457542D01*
X1123055Y455855D01*
X1120289Y453586D01*
X1118020Y450821D01*
X1116334Y447666D01*
X1115295Y444243D01*
X1114945Y440683D01*
X1115295Y437123D01*
X1116334Y433700D01*
X1118020Y430545D01*
X1119279Y429011D01*
X1118736Y427863D01*
X1097649D01*
X1097106Y429011D01*
X1098365Y430545D01*
X1100051Y433700D01*
X1101089Y437123D01*
X1101440Y440683D01*
X1101089Y444243D01*
X1100051Y447666D01*
X1098365Y450821D01*
X1096095Y453586D01*
X1093330Y455855D01*
X1090175Y457542D01*
X1086752Y458580D01*
X1083192Y458931D01*
X1079632Y458580D01*
X1076209Y457542D01*
X1073054Y455855D01*
X1072122Y455090D01*
X1070974Y455633D01*
Y501650D01*
X1070537Y504965D01*
X1069257Y508055D01*
X1067222Y510708D01*
X1034242Y543687D01*
X1034742Y544957D01*
X1146954D01*
Y454469D01*
D02*
G37*
G36*
X928243Y544957D02*
X971186D01*
Y420243D01*
X961517D01*
Y427863D01*
X947022D01*
Y432191D01*
X948379Y432370D01*
X950457Y433230D01*
X952241Y434599D01*
X953610Y436383D01*
X954470Y438461D01*
X954764Y440690D01*
X954470Y442919D01*
X953610Y444997D01*
X952241Y446781D01*
X950457Y448150D01*
X948379Y449010D01*
X946150Y449304D01*
X943921Y449010D01*
X943856Y448983D01*
X943270Y449748D01*
X906890Y486128D01*
Y544957D01*
X910717D01*
Y552577D01*
X928243D01*
Y544957D01*
D02*
G37*
G36*
X898738Y390484D02*
X904183Y385040D01*
X903510Y383917D01*
X901425Y384549D01*
X897890Y384897D01*
X894355Y384549D01*
X890955Y383518D01*
X887822Y381843D01*
X885190Y379683D01*
X882558Y381843D01*
X879425Y383518D01*
X876025Y384549D01*
X872490Y384897D01*
X868955Y384549D01*
X865555Y383518D01*
X862422Y381843D01*
X859790Y379683D01*
X857158Y381843D01*
X854025Y383518D01*
X850625Y384549D01*
X847090Y384897D01*
X843555Y384549D01*
X840155Y383518D01*
X837022Y381843D01*
X834390Y379683D01*
X831758Y381843D01*
X828625Y383518D01*
X825225Y384549D01*
X821690Y384897D01*
X818155Y384549D01*
X814755Y383518D01*
X811622Y381843D01*
X808990Y379683D01*
X806358Y381843D01*
X803225Y383518D01*
X799825Y384549D01*
X796290Y384897D01*
X792755Y384549D01*
X789355Y383518D01*
X786222Y381843D01*
X783590Y379683D01*
X780958Y381843D01*
X777825Y383518D01*
X774425Y384549D01*
X770890Y384897D01*
X767355Y384549D01*
X763955Y383518D01*
X760822Y381843D01*
X758190Y379683D01*
X755558Y381843D01*
X752425Y383518D01*
X749025Y384549D01*
X745490Y384897D01*
X741955Y384549D01*
X738555Y383518D01*
X735422Y381843D01*
X732790Y379683D01*
X730158Y381843D01*
X727025Y383518D01*
X723625Y384549D01*
X720090Y384897D01*
X716555Y384549D01*
X713155Y383518D01*
X710022Y381843D01*
X707390Y379683D01*
X704758Y381843D01*
X701625Y383518D01*
X700780Y383774D01*
X700383Y385222D01*
X701973Y387295D01*
X703253Y390385D01*
X703539Y392557D01*
X897148D01*
X898738Y390484D01*
D02*
G37*
G36*
X971186Y392684D02*
X971623Y389369D01*
X972903Y386279D01*
X974234Y384543D01*
Y377407D01*
X974090Y377280D01*
X971371Y376922D01*
X968838Y375873D01*
X966663Y374203D01*
X966574Y374087D01*
X965125Y374285D01*
X963757Y376844D01*
X961504Y379590D01*
X959072Y381586D01*
X957724Y391287D01*
X958430Y392557D01*
X961517D01*
Y400177D01*
X971186D01*
Y392684D01*
D02*
G37*
G36*
X1020716Y380210D02*
X1001027Y360520D01*
X999854Y361006D01*
Y389636D01*
X999595Y391602D01*
X1000432Y392557D01*
X1020716D01*
Y380210D01*
D02*
G37*
G36*
X811622Y344597D02*
X814755Y342922D01*
X818155Y341891D01*
X821690Y341543D01*
X825225Y341891D01*
X828625Y342922D01*
X831758Y344597D01*
X833132Y345725D01*
X834280Y345182D01*
Y337820D01*
X834717Y334505D01*
X835997Y331415D01*
X838032Y328762D01*
X839884Y326911D01*
X839398Y325738D01*
X710918D01*
X707500Y329156D01*
Y345182D01*
X708648Y345725D01*
X710022Y344597D01*
X713155Y342922D01*
X716555Y341891D01*
X720090Y341543D01*
X723625Y341891D01*
X727025Y342922D01*
X730158Y344597D01*
X732790Y346757D01*
X735422Y344597D01*
X738555Y342922D01*
X741955Y341891D01*
X745490Y341543D01*
X749025Y341891D01*
X752425Y342922D01*
X755558Y344597D01*
X758190Y346757D01*
X760822Y344597D01*
X763955Y342922D01*
X767355Y341891D01*
X770890Y341543D01*
X774425Y341891D01*
X777825Y342922D01*
X780958Y344597D01*
X783590Y346757D01*
X786222Y344597D01*
X789355Y342922D01*
X792755Y341891D01*
X796290Y341543D01*
X799825Y341891D01*
X803225Y342922D01*
X806358Y344597D01*
X808990Y346757D01*
X811622Y344597D01*
D02*
G37*
G36*
X1146954Y389354D02*
X1083338Y325738D01*
X1022676D01*
X1022190Y326911D01*
X1067222Y371942D01*
X1069257Y374595D01*
X1070537Y377685D01*
X1070974Y381000D01*
Y392557D01*
X1146954D01*
Y389354D01*
D02*
G37*
D10*
X604520Y428230D02*
D03*
Y458230D02*
D03*
D11*
X172720Y46990D02*
X204216Y15494D01*
X411480D01*
X415036Y19050D01*
Y35814D01*
X280670Y170180D02*
X415036Y35814D01*
X280670Y170180D02*
Y321310D01*
X290830Y331470D01*
X318770D01*
X248920Y580390D02*
Y631190D01*
Y580390D02*
X260350Y568960D01*
X304800D01*
X995680Y410210D02*
Y425450D01*
X1010920Y440690D01*
X1022350D01*
X105410Y564210D02*
X159150Y510470D01*
X105410Y564210D02*
Y647700D01*
X690880Y393700D02*
Y410210D01*
X676910Y379730D02*
X690880Y393700D01*
X582676Y379730D02*
X676910D01*
X580136Y377190D02*
X582676Y379730D01*
X580136Y349250D02*
Y377190D01*
Y349250D02*
X601726Y327660D01*
Y161036D02*
Y327660D01*
X483870Y43180D02*
X601726Y161036D01*
X558800Y444740D02*
Y585470D01*
Y444740D02*
X575310Y428230D01*
X604520D01*
X919480Y467360D02*
X946150Y440690D01*
X919480Y467360D02*
Y562610D01*
X407670Y594360D02*
X436880Y565150D01*
X370840Y594360D02*
X407670D01*
X231140Y537210D02*
X248920Y554990D01*
X231140Y172720D02*
Y537210D01*
X572516Y312674D02*
X590550Y294640D01*
X572516Y312674D02*
Y384810D01*
X604520Y416814D01*
Y428230D01*
X620790Y444500D01*
X831850D01*
X970280Y390652D02*
X974090Y363220D01*
X970280Y390652D02*
Y410210D01*
X946150Y440690D02*
X970280Y416560D01*
Y410210D02*
Y416560D01*
X257810Y172720D02*
X403860Y26670D01*
X231140Y172720D02*
X257810D01*
X944880Y562610D02*
Y572770D01*
X942340Y575310D02*
X944880Y572770D01*
X884936Y575310D02*
X942340D01*
X882396Y572770D02*
X884936Y575310D01*
X882396Y449072D02*
Y572770D01*
Y449072D02*
X907796Y423672D01*
Y399542D02*
Y423672D01*
Y399542D02*
X923290Y384048D01*
Y363220D02*
Y384048D01*
X970280Y562610D02*
X978916D01*
X983996Y557530D01*
Y392684D02*
Y557530D01*
Y392684D02*
X987044Y389636D01*
Y352044D02*
Y389636D01*
X981710Y346710D02*
X987044Y352044D01*
X900430Y346710D02*
X981710D01*
X897890Y349250D02*
X900430Y346710D01*
X897890Y349250D02*
Y363220D01*
X995680Y486410D02*
Y562610D01*
Y486410D02*
X1033526Y448564D01*
Y374904D02*
Y448564D01*
X993902Y335280D02*
X1033526Y374904D01*
X880110Y335280D02*
X993902D01*
X872490Y342900D02*
X880110Y335280D01*
X872490Y342900D02*
Y363220D01*
X847090Y337820D02*
Y363220D01*
Y337820D02*
X859790Y325120D01*
X1002284D01*
X1058164Y381000D01*
Y501650D01*
X1021080Y538734D02*
X1058164Y501650D01*
X1021080Y538734D02*
Y562610D01*
X1164844D02*
X1173480D01*
X1159764Y557530D02*
X1164844Y562610D01*
X1159764Y384048D02*
Y557530D01*
X1088644Y312928D02*
X1159764Y384048D01*
X705612Y312928D02*
X1088644D01*
X694690Y323850D02*
X705612Y312928D01*
X694690Y323850D02*
Y363220D01*
X1173480Y361950D02*
Y410210D01*
X1113790Y302260D02*
X1173480Y361950D01*
X680720Y302260D02*
X1113790D01*
X669290Y313690D02*
X680720Y302260D01*
X669290Y313690D02*
Y363220D01*
X741680Y562610D02*
Y609092D01*
X762000Y629412D01*
Y643890D01*
X767080Y562610D02*
Y603250D01*
X787400Y623570D01*
Y643890D01*
X838200Y614934D02*
Y643890D01*
X817880Y594614D02*
X838200Y614934D01*
X817880Y562610D02*
Y594614D01*
X843280Y562610D02*
Y609092D01*
X863600Y629412D01*
Y643890D01*
X868680Y562610D02*
Y603250D01*
X889000Y623570D01*
Y643890D01*
X318770Y306070D02*
X331470D01*
X337820Y312420D01*
Y608330D01*
X349250Y619760D01*
X370840D01*
X295910Y179070D02*
Y293370D01*
X308610Y306070D01*
X318770D01*
X936752Y410210D02*
X944880D01*
X934212Y412750D02*
X936752Y410210D01*
X934212Y412750D02*
Y440690D01*
X894080Y480822D02*
X934212Y440690D01*
X894080Y480822D02*
Y562610D01*
X615950Y294640D02*
Y328930D01*
X618490Y331470D01*
Y363220D01*
X944880Y390652D02*
X948690Y363220D01*
X944880Y390652D02*
Y410210D01*
X590310Y458230D02*
X604520D01*
X583692Y451612D02*
X590310Y458230D01*
D12*
X487680Y615950D02*
D03*
D13*
X436880D02*
D03*
Y565150D02*
D03*
X487680D02*
D03*
D14*
X558800Y585470D02*
D03*
D15*
X609600D02*
D03*
D16*
X370840Y568960D02*
D03*
X304800D02*
D03*
D17*
X370840Y594360D02*
D03*
Y619760D02*
D03*
X304800Y594360D02*
D03*
Y619760D02*
D03*
D18*
X209150Y510470D02*
D03*
Y660470D02*
D03*
X159150D02*
D03*
Y510470D02*
D03*
D19*
X231140Y63500D02*
D03*
D20*
Y118110D02*
D03*
Y172720D02*
D03*
D21*
X295910Y179070D02*
D03*
Y77470D02*
D03*
D22*
X318770Y331470D02*
D03*
Y306070D02*
D03*
D23*
Y318770D02*
D03*
D24*
X1133193Y440683D02*
D03*
X1083192D02*
D03*
D25*
X403860Y102870D02*
D03*
Y26670D02*
D03*
X1022350Y440690D02*
D03*
X946150D02*
D03*
X908050Y444500D02*
D03*
X831850D02*
D03*
X248920Y631190D02*
D03*
Y554990D02*
D03*
X615950Y294640D02*
D03*
X641350D02*
D03*
D26*
X690880Y410210D02*
D03*
D27*
X716280D02*
D03*
X741680D02*
D03*
X767080D02*
D03*
X792480D02*
D03*
X817880D02*
D03*
X843280D02*
D03*
X868680D02*
D03*
X894080D02*
D03*
X919480D02*
D03*
X944880D02*
D03*
X970280D02*
D03*
X995680D02*
D03*
X1021080D02*
D03*
X1046480D02*
D03*
X1071880D02*
D03*
X1097280D02*
D03*
X1122680D02*
D03*
X1148080D02*
D03*
X1173480D02*
D03*
Y562610D02*
D03*
X1148080D02*
D03*
X1122680D02*
D03*
X1097280D02*
D03*
X1071880D02*
D03*
X1046480D02*
D03*
X1021080D02*
D03*
X995680D02*
D03*
X970280D02*
D03*
X944880D02*
D03*
X919480D02*
D03*
X894080D02*
D03*
X868680D02*
D03*
X843280D02*
D03*
X817880D02*
D03*
X792480D02*
D03*
X767080D02*
D03*
X741680D02*
D03*
X716280D02*
D03*
X690880D02*
D03*
D28*
X172720Y300990D02*
D03*
D29*
Y46990D02*
D03*
D30*
X433070Y43180D02*
D03*
X483870D02*
D03*
D31*
X80010Y647700D02*
D03*
D32*
X105410D02*
D03*
D33*
X974090Y363220D02*
D03*
X948690D02*
D03*
X923290D02*
D03*
X897890D02*
D03*
X872490D02*
D03*
X847090D02*
D03*
X821690D02*
D03*
X796290D02*
D03*
X770890D02*
D03*
X745490D02*
D03*
X720090D02*
D03*
X694690D02*
D03*
X669290D02*
D03*
X643890D02*
D03*
X618490D02*
D03*
D34*
X593090D02*
D03*
D35*
X31750Y607060D02*
D03*
Y581660D02*
D03*
Y556260D02*
D03*
D36*
Y530860D02*
D03*
D37*
X736600Y643890D02*
D03*
X787400D02*
D03*
X863600D02*
D03*
X838200D02*
D03*
X812800D02*
D03*
X762000D02*
D03*
X711200D02*
D03*
D38*
X889000D02*
D03*
D39*
X27940Y393954D02*
D03*
Y418846D02*
D03*
Y444500D02*
D03*
D40*
X590550Y294640D02*
D03*
D41*
X52070Y90170D02*
D03*
X173990Y212090D02*
D03*
X113030Y64770D02*
D03*
X52070Y212090D02*
D03*
X173990Y90170D02*
D03*
D42*
X583692Y451612D02*
D03*
M02*
